DiplomataSC-Regular.otf.ufo
<glyph name="ampersand" format="1">
  <advance width="1389"/>
  <unicode hex="0026"/>
  <outline>
    <contour>
      <point x="960" y="356" type="line"/>
      <point x="960" y="313" type="line"/>
      <point x="1012" y="313" type="line" smooth="yes"/>
      <point x="1044" y="313" smooth="yes"/>
      <point x="1057" y="307" smooth="yes"/>
      <point x="1057" y="290" type="curve" smooth="yes"/>
      <point x="1057" y="255"/>
      <point x="1017" y="213"/>
      <point x="955" y="173" type="curve"/>
      <point x="889" y="232"/>
      <point x="838" y="302"/>
      <point x="804" y="365" type="curve"/>
      <point x="966" y="397" smooth="yes"/>
      <point x="1009" y="456" smooth="yes"/>
      <point x="1009" y="496" type="curve" smooth="yes"/>
      <point x="1009" y="551" smooth="yes"/>
      <point x="935" y="595" smooth="yes"/>
      <point x="820" y="595" type="curve" smooth="yes"/>
      <point x="673" y="595" smooth="yes"/>
      <point x="450" y="559" smooth="yes"/>
      <point x="450" y="501" type="curve" smooth="yes"/>
      <point x="450" y="466"/>
      <point x="459" y="425"/>
      <point x="474" y="383" type="curve"/>
      <point x="117" y="379" smooth="yes"/>
      <point x="0" y="285" smooth="yes"/>
      <point x="0" y="175" type="curve" smooth="yes"/>
      <point x="0" y="63" smooth="yes"/>
      <point x="130" y="-23" smooth="yes"/>
      <point x="412" y="-23" type="curve" smooth="yes"/>
      <point x="529" y="-23"/>
      <point x="639" y="-1"/>
      <point x="739" y="31" type="curve"/>
      <point x="771" y="11" smooth="yes"/>
      <point x="802" y="0" smooth="yes"/>
      <point x="830" y="0" type="curve" smooth="yes" name="hr01"/>
      <point x="1389" y="0" type="line"/>
      <point x="1389" y="43" type="line"/>
      <point x="1264" y="43" type="line" smooth="yes"/>
      <point x="1159" y="43"/>
      <point x="1067" y="84"/>
      <point x="991" y="143" type="curve"/>
      <point x="1115" y="214"/>
      <point x="1200" y="285"/>
      <point x="1232" y="313" type="curve"/>
      <point x="1389" y="313" type="line"/>
      <point x="1389" y="356" type="line"/>
    </contour>
    <contour>
      <point x="510" y="33" type="curve" smooth="yes"/>
      <point x="422" y="33" smooth="yes"/>
      <point x="362" y="70" smooth="yes"/>
      <point x="362" y="178" type="curve" smooth="yes"/>
      <point x="362" y="293"/>
      <point x="404" y="334"/>
      <point x="491" y="342" type="curve"/>
      <point x="537" y="238"/>
      <point x="617" y="127"/>
      <point x="697" y="61" type="curve"/>
      <point x="633" y="43" smooth="yes"/>
      <point x="569" y="33" smooth="yes"/>
    </contour>
    <contour>
      <point x="757" y="505" type="curve" smooth="yes"/>
      <point x="757" y="526" smooth="yes"/>
      <point x="764" y="561" smooth="yes"/>
      <point x="843" y="561" type="curve" smooth="yes"/>
      <point x="921" y="561" smooth="yes"/>
      <point x="938" y="527" smooth="yes"/>
      <point x="938" y="498" type="curve" smooth="yes"/>
      <point x="938" y="477"/>
      <point x="926" y="431"/>
      <point x="785" y="404" type="curve"/>
      <point x="766" y="445" smooth="yes"/>
      <point x="757" y="481" smooth="yes"/>
    </contour>
    <contour>
      <point x="557" y="517" type="curve"/>
      <point x="593" y="370"/>
      <point x="701" y="134"/>
      <point x="921" y="36" type="curve"/>
      <point x="736" y="36"/>
      <point x="573" y="249"/>
      <point x="513" y="496" type="curve"/>
      <point x="518" y="504"/>
      <point x="538" y="515"/>
    </contour>
    <contour>
      <point x="126" y="53" type="line"/>
      <point x="82" y="84" smooth="yes"/>
      <point x="50" y="130" smooth="yes"/>
      <point x="50" y="176" type="curve" smooth="yes"/>
      <point x="50" y="222"/>
      <point x="81" y="267"/>
      <point x="126" y="299" type="curve"/>
      <point x="130" y="295" type="line"/>
      <point x="105" y="257" smooth="yes"/>
      <point x="98" y="212" smooth="yes"/>
      <point x="98" y="176" type="curve" smooth="yes"/>
      <point x="98" y="140"/>
      <point x="105" y="94"/>
      <point x="130" y="56" type="curve"/>
    </contour>
  </outline>
</glyph>
<glyph name="quotesingle" format="1">
  <advance width="411"/>
  <unicode hex="0027"/>
  <outline>
    <contour>
      <point x="361" y="594" type="curve" smooth="yes" name="hr00"/>
      <point x="361" y="533" smooth="yes"/>
      <point x="243" y="293" smooth="yes"/>
      <point x="205" y="293" type="curve" smooth="yes"/>
      <point x="169" y="293" smooth="yes"/>
      <point x="50" y="533" smooth="yes"/>
      <point x="50" y="594" type="curve" smooth="yes"/>
      <point x="50" y="654" smooth="yes"/>
      <point x="105" y="687" smooth="yes"/>
      <point x="205" y="687" type="curve" smooth="yes"/>
      <point x="304" y="687" smooth="yes"/>
      <point x="361" y="654" smooth="yes"/>
    </contour>
    <contour>
      <point x="157" y="657" type="line"/>
      <point x="120" y="648" smooth="yes"/>
      <point x="102" y="629" smooth="yes"/>
      <point x="102" y="604" type="curve" smooth="yes"/>
      <point x="102" y="562"/>
      <point x="165" y="405"/>
      <point x="205" y="335" type="curve"/>
      <point x="229" y="374" type="line"/>
      <point x="190" y="450" smooth="yes"/>
      <point x="140" y="576" smooth="yes"/>
      <point x="139" y="614" type="curve" smooth="yes"/>
      <point x="139" y="626"/>
      <point x="145" y="640"/>
      <point x="159" y="651" type="curve"/>
    </contour>
  </outline>
</glyph>
<glyph name="period" format="1">
  <advance width="594"/>
  <unicode hex="002E"/>
  <outline>
    <contour>
      <point x="501" y="103" type="curve" smooth="yes" name="hr00"/>
      <point x="501" y="172" smooth="yes"/>
      <point x="409" y="229" smooth="yes"/>
      <point x="296" y="229" type="curve" smooth="yes"/>
      <point x="183" y="229" smooth="yes"/>
      <point x="91" y="172" smooth="yes"/>
      <point x="91" y="103" type="curve" smooth="yes"/>
      <point x="91" y="34" smooth="yes"/>
      <point x="183" y="-22" smooth="yes"/>
      <point x="296" y="-22" type="curve" smooth="yes"/>
      <point x="409" y="-22" smooth="yes"/>
      <point x="501" y="34" smooth="yes"/>
    </contour>
    <contour>
      <point x="180" y="103" type="curve"/>
      <point x="180" y="70"/>
      <point x="195" y="40"/>
      <point x="217" y="19" type="curve"/>
      <point x="214" y="15" type="line"/>
      <point x="165" y="33" smooth="yes"/>
      <point x="131" y="67" smooth="yes"/>
      <point x="131" y="103" type="curve" smooth="yes"/>
      <point x="131" y="139"/>
      <point x="165" y="173"/>
      <point x="214" y="191" type="curve"/>
      <point x="217" y="187" type="line"/>
      <point x="195" y="166" smooth="yes"/>
      <point x="180" y="136" smooth="yes"/>
    </contour>
  </outline>
</glyph>
<glyph name="B" format="1">
  <advance width="1481"/>
  <unicode hex="0042"/>
  <outline>
    <contour>
      <point x="1362" y="505" type="curve" smooth="yes"/>
      <point x="1362" y="634" smooth="yes"/>
      <point x="1214" y="650" smooth="yes"/>
      <point x="1035" y="650" type="curve" smooth="yes"/>
      <point x="73" y="650" type="line"/>
      <point x="73" y="607" type="line"/>
      <point x="193" y="607" type="line" smooth="yes"/>
      <point x="253" y="607" smooth="yes"/>
      <point x="301" y="556" smooth="yes"/>
      <point x="301" y="497" type="curve" smooth="yes"/>
      <point x="301" y="151" type="line" smooth="yes"/>
      <point x="301" y="72" smooth="yes"/>
      <point x="253" y="43" smooth="yes"/>
      <point x="193" y="43" type="curve" smooth="yes"/>
      <point x="73" y="43" type="line"/>
      <point x="73" y="0" type="line"/>
      <point x="1114" y="0" type="line" smooth="yes"/>
      <point x="1230" y="0" smooth="yes"/>
      <point x="1421" y="32" smooth="yes"/>
      <point x="1421" y="175" type="curve" smooth="yes" name="hr01"/>
      <point x="1421" y="298"/>
      <point x="1273" y="337"/>
      <point x="1228" y="345" type="curve"/>
      <point x="1228" y="350" type="line"/>
      <point x="1264" y="363" smooth="yes"/>
      <point x="1362" y="407" smooth="yes"/>
    </contour>
    <contour>
      <point x="776" y="43" type="line" smooth="yes"/>
      <point x="714" y="43" smooth="yes"/>
      <point x="692" y="85" smooth="yes"/>
      <point x="692" y="145" type="curve" smooth="yes"/>
      <point x="692" y="324" type="line"/>
      <point x="856" y="324" type="line" smooth="yes"/>
      <point x="948" y="324" smooth="yes"/>
      <point x="1018" y="283" smooth="yes"/>
      <point x="1018" y="184" type="curve" smooth="yes"/>
      <point x="1018" y="76" smooth="yes"/>
      <point x="934" y="43" smooth="yes"/>
      <point x="867" y="43" type="curve" smooth="yes"/>
    </contour>
    <contour>
      <point x="692" y="508" type="line" smooth="yes"/>
      <point x="692" y="567" smooth="yes"/>
      <point x="736" y="606" smooth="yes"/>
      <point x="810" y="606" type="curve" smooth="yes"/>
      <point x="919" y="606" smooth="yes"/>
      <point x="980" y="562" smooth="yes"/>
      <point x="980" y="484" type="curve" smooth="yes" name="hr03"/>
      <point x="980" y="398" smooth="yes"/>
      <point x="908" y="362" smooth="yes"/>
      <point x="849" y="362" type="curve" smooth="yes"/>
      <point x="692" y="362" type="line"/>
    </contour>
    <contour>
      <point x="434" y="43" type="line"/>
      <point x="369" y="43" type="line"/>
      <point x="369" y="607" type="line"/>
      <point x="434" y="607" type="line"/>
    </contour>
    <contour>
      <point x="1021" y="368" type="line"/>
      <point x="1047" y="400" smooth="yes"/>
      <point x="1061" y="434" smooth="yes"/>
      <point x="1061" y="478" type="curve" smooth="yes"/>
      <point x="1061" y="523"/>
      <point x="1046" y="557"/>
      <point x="1021" y="588" type="curve"/>
      <point x="1024" y="591" type="line"/>
      <point x="1086" y="573" smooth="yes"/>
      <point x="1132" y="532" smooth="yes"/>
      <point x="1132" y="478" type="curve" smooth="yes"/>
      <point x="1132" y="424"/>
      <point x="1085" y="384"/>
      <point x="1024" y="364" type="curve"/>
    </contour>
    <contour>
      <point x="1041" y="51" type="line"/>
      <point x="1078" y="83" smooth="yes"/>
      <point x="1102" y="127" smooth="yes"/>
      <point x="1102" y="184" type="curve" smooth="yes" name="hr04"/>
      <point x="1102" y="243"/>
      <point x="1077" y="287"/>
      <point x="1040" y="319" type="curve"/>
      <point x="1043" y="323" type="line"/>
      <point x="1118" y="299" smooth="yes"/>
      <point x="1172" y="249" smooth="yes"/>
      <point x="1172" y="184" type="curve" smooth="yes"/>
      <point x="1172" y="121"/>
      <point x="1118" y="71"/>
      <point x="1043" y="47" type="curve"/>
    </contour>
  </outline>
</glyph>
<glyph name="G" format="1">
  <advance width="1372"/>
  <unicode hex="0047"/>
  <outline>
    <contour>
      <point x="603" y="391" type="line"/>
      <point x="603" y="348" type="line"/>
      <point x="718" y="348" type="line" smooth="yes"/>
      <point x="774" y="348" smooth="yes"/>
      <point x="832" y="305" smooth="yes"/>
      <point x="832" y="247" type="curve" smooth="yes"/>
      <point x="832" y="175" type="line" smooth="yes"/>
      <point x="832" y="44" smooth="yes"/>
      <point x="731" y="21" smooth="yes"/>
      <point x="669" y="21" type="curve" smooth="yes"/>
      <point x="508" y="21" smooth="yes"/>
      <point x="474" y="112" smooth="yes"/>
      <point x="474" y="203" type="curve" smooth="yes"/>
      <point x="474" y="482" type="line" smooth="yes"/>
      <point x="474" y="588" smooth="yes"/>
      <point x="567" y="629" smooth="yes"/>
      <point x="684" y="629" type="curve" smooth="yes"/>
      <point x="859" y="629"/>
      <point x="1020" y="529"/>
      <point x="1079" y="439" type="curve"/>
      <point x="1127" y="439" type="line"/>
      <point x="1127" y="650" type="line" name="hr01"/>
      <point x="1079" y="650" type="line"/>
      <point x="1079" y="607" type="line"/>
      <point x="935" y="650" smooth="yes"/>
      <point x="770" y="674" smooth="yes"/>
      <point x="630" y="674" type="curve" smooth="yes" name="hr02"/>
      <point x="307" y="674" smooth="yes"/>
      <point x="22" y="598" smooth="yes"/>
      <point x="22" y="328" type="curve" smooth="yes"/>
      <point x="22" y="74" smooth="yes"/>
      <point x="305" y="-23" smooth="yes"/>
      <point x="666" y="-23" type="curve" smooth="yes"/>
      <point x="912" y="-23" smooth="yes"/>
      <point x="1020" y="63" smooth="yes"/>
      <point x="1094" y="63" type="curve" smooth="yes"/>
      <point x="1141" y="63"/>
      <point x="1165" y="36"/>
      <point x="1165" y="0" type="curve" name="hr03"/>
      <point x="1213" y="0" type="line"/>
      <point x="1213" y="348" type="line"/>
      <point x="1403" y="348" type="line"/>
      <point x="1403" y="391" type="line"/>
    </contour>
    <contour>
      <point x="300" y="67" type="line"/>
      <point x="175" y="108" smooth="yes"/>
      <point x="85" y="213" smooth="yes"/>
      <point x="85" y="335" type="curve" smooth="yes"/>
      <point x="85" y="457"/>
      <point x="175" y="560"/>
      <point x="299" y="601" type="curve"/>
      <point x="301" y="596" type="line"/>
      <point x="218" y="548" smooth="yes"/>
      <point x="159" y="449" smooth="yes"/>
      <point x="159" y="335" type="curve" smooth="yes"/>
      <point x="159" y="220"/>
      <point x="218" y="120"/>
      <point x="301" y="71" type="curve"/>
    </contour>
    <contour>
      <point x="964" y="215" type="line" smooth="yes"/>
      <point x="964" y="136" smooth="yes"/>
      <point x="937" y="71" smooth="yes"/>
      <point x="914" y="71" type="curve" smooth="yes"/>
      <point x="904" y="71" smooth="yes"/>
      <point x="899" y="85" smooth="yes"/>
      <point x="899" y="149" type="curve" smooth="yes"/>
      <point x="899" y="346" type="line"/>
      <point x="964" y="346" type="line"/>
    </contour>
  </outline>
</glyph>
<glyph name="K" format="1">
  <advance width="1655"/>
  <unicode hex="004B"/>
  <outline>
    <contour>
      <point x="434" y="43" type="line" name="hr00"/>
      <point x="369" y="43" type="line"/>
      <point x="369" y="607" type="line"/>
      <point x="434" y="607" type="line"/>
    </contour>
    <contour>
      <point x="1213" y="43" type="line"/>
      <point x="1126" y="43" type="line"/>
      <point x="875" y="324" type="line"/>
      <point x="962" y="324" type="line"/>
    </contour>
    <contour>
      <point x="873" y="0" type="line"/>
      <point x="873" y="43" type="line"/>
      <point x="801" y="43" type="line" smooth="yes"/>
      <point x="741" y="43" smooth="yes"/>
      <point x="692" y="72" smooth="yes"/>
      <point x="692" y="151" type="curve" smooth="yes"/>
      <point x="692" y="252" type="line" smooth="yes"/>
      <point x="692" y="273" smooth="yes"/>
      <point x="701" y="296" smooth="yes"/>
      <point x="734" y="296" type="curve" smooth="yes"/>
      <point x="813" y="296" type="line"/>
      <point x="1077" y="0" type="line"/>
      <point x="1633" y="0" type="line"/>
      <point x="1633" y="43" type="line"/>
      <point x="1499" y="43" type="line"/>
      <point x="1201" y="397" type="line" smooth="yes"/>
      <point x="1190" y="410" smooth="yes"/>
      <point x="1186" y="422" smooth="yes"/>
      <point x="1186" y="433" type="curve" smooth="yes"/>
      <point x="1186" y="453" smooth="yes"/>
      <point x="1201" y="469" smooth="yes"/>
      <point x="1216" y="478" type="curve" smooth="yes"/>
      <point x="1240" y="492" smooth="yes"/>
      <point x="1443" y="607" smooth="yes"/>
      <point x="1526" y="607" type="curve" smooth="yes"/>
      <point x="1609" y="607"/>
      <point x="1633" y="607"/>
      <point x="1633" y="607" type="curve"/>
      <point x="1633" y="650" type="line"/>
      <point x="1041" y="650" type="line"/>
      <point x="1041" y="607" type="line"/>
      <point x="1143" y="607" smooth="yes"/>
      <point x="1181" y="599" smooth="yes"/>
      <point x="1181" y="563" type="curve" smooth="yes"/>
      <point x="1181" y="527" smooth="yes"/>
      <point x="1145" y="498" smooth="yes"/>
      <point x="1061" y="460" type="curve" smooth="yes"/>
      <point x="864" y="371" type="line" smooth="yes"/>
      <point x="829" y="355" smooth="yes"/>
      <point x="806" y="345" smooth="yes"/>
      <point x="770" y="345" type="curve" smooth="yes"/>
      <point x="750" y="345" type="line" smooth="yes"/>
      <point x="700" y="345" smooth="yes"/>
      <point x="692" y="376" smooth="yes"/>
      <point x="692" y="403" type="curve" smooth="yes"/>
      <point x="692" y="509" type="line" smooth="yes"/>
      <point x="692" y="566" smooth="yes"/>
      <point x="734" y="607" smooth="yes"/>
      <point x="804" y="607" type="curve" smooth="yes"/>
      <point x="915" y="607" type="line"/>
      <point x="915" y="650" type="line"/>
      <point x="73" y="650" type="line"/>
      <point x="73" y="607" type="line"/>
      <point x="193" y="607" type="line" smooth="yes"/>
      <point x="253" y="607" smooth="yes"/>
      <point x="301" y="557" smooth="yes"/>
      <point x="301" y="498" type="curve" smooth="yes"/>
      <point x="301" y="151" type="line" smooth="yes"/>
      <point x="301" y="72" smooth="yes"/>
      <point x="253" y="43" smooth="yes"/>
      <point x="193" y="43" type="curve" smooth="yes"/>
      <point x="73" y="43" type="line"/>
      <point x="73" y="0" type="line"/>
    </contour>
  </outline>
</glyph>
<glyph name="P" format="1">
  <advance width="1447"/>
  <unicode hex="0050"/>
  <outline>
    <contour>
      <point x="73" y="650" type="line" name="hr00"/>
      <point x="73" y="607" type="line"/>
      <point x="194" y="607" type="line" smooth="yes"/>
      <point x="255" y="607" smooth="yes"/>
      <point x="303" y="556" smooth="yes"/>
      <point x="303" y="497" type="curve" smooth="yes"/>
      <point x="303" y="151" type="line" smooth="yes"/>
      <point x="303" y="72" smooth="yes"/>
      <point x="255" y="43" smooth="yes"/>
      <point x="194" y="43" type="curve" smooth="yes"/>
      <point x="73" y="43" type="line"/>
      <point x="73" y="0" type="line"/>
      <point x="924" y="0" type="line"/>
      <point x="924" y="43" type="line"/>
      <point x="802" y="43" type="line" smooth="yes"/>
      <point x="742" y="43" smooth="yes"/>
      <point x="694" y="72" smooth="yes"/>
      <point x="694" y="151" type="curve" smooth="yes"/>
      <point x="694" y="216" type="line" smooth="yes"/>
      <point x="694" y="265" smooth="yes"/>
      <point x="712" y="284" smooth="yes"/>
      <point x="749" y="284" type="curve" smooth="yes"/>
      <point x="1122" y="284" type="line" smooth="yes"/>
      <point x="1300" y="284" smooth="yes"/>
      <point x="1434" y="332" smooth="yes"/>
      <point x="1434" y="469" type="curve" smooth="yes"/>
      <point x="1434" y="630" smooth="yes"/>
      <point x="1229" y="650" smooth="yes"/>
      <point x="1082" y="650" type="curve" smooth="yes"/>
    </contour>
    <contour>
      <point x="436" y="43" type="line"/>
      <point x="370" y="43" type="line"/>
      <point x="370" y="607" type="line"/>
      <point x="436" y="607" type="line"/>
    </contour>
    <contour>
      <point x="745" y="329" type="line" smooth="yes"/>
      <point x="717" y="329" smooth="yes"/>
      <point x="695" y="352" smooth="yes"/>
      <point x="695" y="379" type="curve" smooth="yes"/>
      <point x="695" y="556" type="line" smooth="yes"/>
      <point x="695" y="584" smooth="yes"/>
      <point x="717" y="607" smooth="yes"/>
      <point x="745" y="607" type="curve" smooth="yes"/>
      <point x="846" y="607" type="line" smooth="yes"/>
      <point x="901" y="607" smooth="yes"/>
      <point x="1010" y="571" smooth="yes"/>
      <point x="1010" y="468" type="curve" smooth="yes"/>
      <point x="1010" y="365" smooth="yes"/>
      <point x="901" y="329" smooth="yes"/>
      <point x="846" y="329" type="curve" smooth="yes"/>
    </contour>
    <contour>
      <point x="1157" y="468" type="curve"/>
      <point x="1157" y="411"/>
      <point x="1113" y="351"/>
      <point x="1061" y="333" type="curve"/>
      <point x="1056" y="336" type="line"/>
      <point x="1080" y="373" smooth="yes"/>
      <point x="1088" y="422" smooth="yes"/>
      <point x="1088" y="468" type="curve" smooth="yes"/>
      <point x="1088" y="514"/>
      <point x="1080" y="563"/>
      <point x="1056" y="600" type="curve"/>
      <point x="1061" y="603" type="line"/>
      <point x="1113" y="585" smooth="yes"/>
      <point x="1157" y="525" smooth="yes"/>
    </contour>
  </outline>
</glyph>
<glyph name="Q" format="1">
  <advance width="1345"/>
  <unicode hex="0051"/>
  <outline>
    <contour>
      <point x="1322" y="325" type="curve" smooth="yes" name="hr00"/>
      <point x="1322" y="517" smooth="yes"/>
      <point x="1070" y="671" smooth="yes"/>
      <point x="672" y="671" type="curve" smooth="yes"/>
      <point x="274" y="671" smooth="yes"/>
      <point x="22" y="517" smooth="yes"/>
      <point x="22" y="325" type="curve" smooth="yes"/>
      <point x="22" y="139"/>
      <point x="295" y="-11"/>
      <point x="638" y="-21" type="curve"/>
      <point x="638" y="-25" type="line"/>
      <point x="552" y="-56"/>
      <point x="457" y="-101"/>
      <point x="427" y="-164" type="curve"/>
      <point x="427" y="-207" type="line"/>
      <point x="916" y="-207" type="line"/>
      <point x="916" y="-164" type="line"/>
      <point x="759" y="-164" type="line" smooth="yes"/>
      <point x="734" y="-164" smooth="yes"/>
      <point x="721" y="-139" smooth="yes"/>
      <point x="721" y="-106" type="curve" smooth="yes"/>
      <point x="721" y="-78"/>
      <point x="730" y="-46"/>
      <point x="751" y="-19" type="curve"/>
      <point x="1072" y="2" smooth="yes"/>
      <point x="1322" y="148" smooth="yes"/>
    </contour>
    <contour>
      <point x="465" y="325" type="curve" smooth="yes"/>
      <point x="465" y="525" smooth="yes"/>
      <point x="509" y="629" smooth="yes"/>
      <point x="672" y="629" type="curve" smooth="yes"/>
      <point x="836" y="629" smooth="yes"/>
      <point x="879" y="525" smooth="yes"/>
      <point x="879" y="325" type="curve" smooth="yes"/>
      <point x="879" y="124" smooth="yes"/>
      <point x="803" y="20" smooth="yes"/>
      <point x="672" y="20" type="curve" smooth="yes"/>
      <point x="542" y="20" smooth="yes"/>
      <point x="465" y="124" smooth="yes"/>
    </contour>
    <contour>
      <point x="657" y="-42" type="line"/>
      <point x="637" y="-59"/>
      <point x="558" y="-128"/>
      <point x="558" y="-164" type="curve"/>
      <point x="497" y="-164" type="line"/>
      <point x="497" y="-126"/>
      <point x="607" y="-57"/>
      <point x="655" y="-39" type="curve"/>
    </contour>
    <contour>
      <point x="384" y="40" type="line"/>
      <point x="200" y="96" smooth="yes"/>
      <point x="76" y="202" smooth="yes"/>
      <point x="76" y="325" type="curve" smooth="yes"/>
      <point x="76" y="449"/>
      <point x="202" y="556"/>
      <point x="388" y="611" type="curve"/>
      <point x="389" y="607" type="line"/>
      <point x="246" y="551" smooth="yes"/>
      <point x="149" y="445" smooth="yes"/>
      <point x="149" y="325" type="curve" smooth="yes"/>
      <point x="149" y="205"/>
      <point x="244" y="100"/>
      <point x="385" y="44" type="curve"/>
    </contour>
    <contour>
      <point x="1035" y="325" type="curve" smooth="yes"/>
      <point x="1035" y="219"/>
      <point x="984" y="116"/>
      <point x="909" y="47" type="curve"/>
      <point x="903" y="49" type="line"/>
      <point x="937" y="133" smooth="yes"/>
      <point x="960" y="231" smooth="yes"/>
      <point x="960" y="325" type="curve" smooth="yes"/>
      <point x="960" y="419"/>
      <point x="937" y="517"/>
      <point x="903" y="601" type="curve"/>
      <point x="909" y="603" type="line"/>
      <point x="984" y="534" smooth="yes"/>
      <point x="1035" y="431" smooth="yes"/>
    </contour>
  </outline>
</glyph>
<glyph name="R" format="1">
  <advance width="1585"/>
  <unicode hex="0052"/>
  <outline>
    <contour>
      <point x="1453" y="43" type="line" name="hr00"/>
      <point x="1319" y="215" type="line"/>
      <point x="1222" y="230"/>
      <point x="1148" y="267"/>
      <point x="1120" y="291" type="curve"/>
      <point x="1120" y="296" type="line"/>
      <point x="1291" y="300" smooth="yes"/>
      <point x="1499" y="321" smooth="yes"/>
      <point x="1499" y="469" type="curve" smooth="yes"/>
      <point x="1499" y="631" smooth="yes"/>
      <point x="1295" y="650" smooth="yes"/>
      <point x="1147" y="650" type="curve" smooth="yes"/>
      <point x="73" y="650" type="line"/>
      <point x="73" y="607" type="line"/>
      <point x="194" y="607" type="line" smooth="yes"/>
      <point x="255" y="607" smooth="yes"/>
      <point x="303" y="557" smooth="yes"/>
      <point x="303" y="497" type="curve" smooth="yes"/>
      <point x="303" y="152" type="line" smooth="yes"/>
      <point x="303" y="72" smooth="yes"/>
      <point x="255" y="43" smooth="yes"/>
      <point x="194" y="43" type="curve" smooth="yes"/>
      <point x="73" y="43" type="line"/>
      <point x="73" y="0" type="line"/>
      <point x="877" y="0" type="line"/>
      <point x="877" y="43" type="line"/>
      <point x="802" y="43" type="line" smooth="yes"/>
      <point x="742" y="43" smooth="yes"/>
      <point x="694" y="72" smooth="yes"/>
      <point x="694" y="152" type="curve" smooth="yes"/>
      <point x="694" y="227" type="line" smooth="yes"/>
      <point x="694" y="275" smooth="yes"/>
      <point x="695" y="298" smooth="yes"/>
      <point x="723" y="298" type="curve" smooth="yes"/>
      <point x="746" y="298" smooth="yes"/>
      <point x="778" y="256" smooth="yes"/>
      <point x="778" y="256" type="curve" smooth="yes"/>
      <point x="978" y="0" type="line"/>
      <point x="1571" y="0" type="line"/>
      <point x="1571" y="43" type="line"/>
    </contour>
    <contour>
      <point x="436" y="43" type="line"/>
      <point x="370" y="43" type="line"/>
      <point x="370" y="607" type="line"/>
      <point x="436" y="607" type="line"/>
    </contour>
    <contour>
      <point x="1090" y="339" type="line"/>
      <point x="1113" y="375" smooth="yes"/>
      <point x="1119" y="421" smooth="yes"/>
      <point x="1119" y="468" type="curve" smooth="yes"/>
      <point x="1119" y="518"/>
      <point x="1114" y="561"/>
      <point x="1089" y="598" type="curve"/>
      <point x="1092" y="601" type="line"/>
      <point x="1148" y="585" smooth="yes"/>
      <point x="1188" y="532" smooth="yes"/>
      <point x="1188" y="468" type="curve" smooth="yes"/>
      <point x="1188" y="405"/>
      <point x="1148" y="351"/>
      <point x="1093" y="336" type="curve"/>
    </contour>
    <contour>
      <point x="695" y="556" type="line" smooth="yes"/>
      <point x="695" y="584" smooth="yes"/>
      <point x="717" y="607" smooth="yes"/>
      <point x="745" y="607" type="curve" smooth="yes"/>
      <point x="745" y="607" smooth="yes"/>
      <point x="807" y="607" smooth="yes"/>
      <point x="862" y="607" type="curve" smooth="yes"/>
      <point x="917" y="607" smooth="yes"/>
      <point x="1026" y="571" smooth="yes"/>
      <point x="1026" y="468" type="curve" smooth="yes"/>
      <point x="1026" y="380" smooth="yes"/>
      <point x="940" y="349" smooth="yes"/>
      <point x="856" y="349" type="curve" smooth="yes"/>
      <point x="774" y="349" smooth="yes"/>
      <point x="695" y="378" smooth="yes"/>
      <point x="695" y="413" type="curve" smooth="yes"/>
    </contour>
    <contour>
      <point x="1024" y="43" type="line"/>
      <point x="826" y="298" type="line"/>
      <point x="909" y="298" type="line"/>
      <point x="1107" y="43" type="line"/>
    </contour>
  </outline>
</glyph>
<glyph name="X" format="1">
  <advance width="1373"/>
  <unicode hex="0058"/>
  <outline>
    <contour>
      <point x="1282" y="43" type="line" smooth="yes" name="hr00"/>
      <point x="1221" y="43" smooth="yes"/>
      <point x="1145" y="71" smooth="yes"/>
      <point x="1067" y="151" type="curve" smooth="yes"/>
      <point x="849" y="376" type="line"/>
      <point x="1079" y="525" type="line" smooth="yes"/>
      <point x="1115" y="548" smooth="yes"/>
      <point x="1210" y="607" smooth="yes"/>
      <point x="1294" y="607" type="curve" smooth="yes"/>
      <point x="1327" y="607" type="line"/>
      <point x="1327" y="649" type="line"/>
      <point x="841" y="649" type="line"/>
      <point x="841" y="607" type="line"/>
      <point x="860" y="607" type="line" smooth="yes"/>
      <point x="893" y="607" smooth="yes"/>
      <point x="920" y="583" smooth="yes"/>
      <point x="920" y="546" type="curve" smooth="yes"/>
      <point x="920" y="518" smooth="yes"/>
      <point x="898" y="483" smooth="yes"/>
      <point x="833" y="439" type="curve" smooth="yes"/>
      <point x="805" y="420" type="line"/>
      <point x="730" y="497" type="line" smooth="yes"/>
      <point x="701" y="526" smooth="yes"/>
      <point x="687" y="552" smooth="yes"/>
      <point x="687" y="572" type="curve" smooth="yes"/>
      <point x="687" y="592" smooth="yes"/>
      <point x="702" y="607" smooth="yes"/>
      <point x="733" y="607" type="curve" smooth="yes"/>
      <point x="751" y="607" type="line"/>
      <point x="751" y="650" type="line"/>
      <point x="64" y="650" type="line"/>
      <point x="64" y="607" type="line"/>
      <point x="125" y="607" type="line"/>
      <point x="185" y="607" smooth="yes"/>
      <point x="282" y="556" smooth="yes"/>
      <point x="340" y="497" type="curve" smooth="yes"/>
      <point x="535" y="296" type="line"/>
      <point x="263" y="121" type="line" smooth="yes"/>
      <point x="227" y="98" smooth="yes"/>
      <point x="131" y="43" smooth="yes"/>
      <point x="47" y="43" type="curve" smooth="yes"/>
      <point x="22" y="43"/>
      <point x="13" y="43"/>
      <point x="13" y="43" type="curve"/>
      <point x="13" y="0" type="line"/>
      <point x="576" y="0" type="line"/>
      <point x="576" y="43" type="line"/>
      <point x="481" y="43" type="line" smooth="yes"/>
      <point x="448" y="43" smooth="yes"/>
      <point x="421" y="65" smooth="yes"/>
      <point x="421" y="102" type="curve" smooth="yes"/>
      <point x="421" y="130" smooth="yes"/>
      <point x="442" y="166" smooth="yes"/>
      <point x="508" y="209" type="curve" smooth="yes"/>
      <point x="577" y="254" type="line"/>
      <point x="677" y="151" type="line" smooth="yes"/>
      <point x="712" y="114" smooth="yes"/>
      <point x="727" y="89" smooth="yes"/>
      <point x="727" y="72" type="curve" smooth="yes"/>
      <point x="727" y="52" smooth="yes"/>
      <point x="706" y="43" smooth="yes"/>
      <point x="674" y="43" type="curve" smooth="yes"/>
      <point x="634" y="43" type="line"/>
      <point x="634" y="0" type="line"/>
      <point x="1360" y="0" type="line"/>
      <point x="1360" y="43" type="line"/>
    </contour>
    <contour>
      <point x="865" y="43" type="line"/>
      <point x="313" y="607" type="line"/>
      <point x="390" y="607" type="line"/>
      <point x="942" y="43" type="line"/>
    </contour>
  </outline>
</glyph>
<glyph name="grave" format="1">
  <advance width="650"/>
  <unicode hex="0060"/>
  <outline>
    <contour>
      <point x="198" y="642" type="curve" smooth="yes"/>
      <point x="276" y="624" smooth="yes"/>
      <point x="459" y="624" smooth="yes"/>
      <point x="546" y="624" type="curve" smooth="yes"/>
      <point x="600" y="624" type="line"/>
      <point x="600" y="660" type="line" name="hr01"/>
      <point x="444" y="660"/>
      <point x="391" y="700"/>
      <point x="341" y="770" type="curve"/>
      <point x="50" y="770" type="line"/>
      <point x="50" y="770" smooth="yes"/>
      <point x="74" y="671" smooth="yes"/>
    </contour>
    <contour>
      <point x="288" y="663" type="line"/>
      <point x="184" y="668"/>
      <point x="140" y="717"/>
      <point x="123" y="742" type="curve"/>
      <point x="187" y="742" type="line"/>
      <point x="205" y="705"/>
      <point x="258" y="677"/>
      <point x="288" y="667" type="curve"/>
    </contour>
  </outline>
</glyph>
<glyph name="a" format="1">
  <advance width="1188"/>
  <unicode hex="0061"/>
  <outline>
    <contour>
      <point x="688" y="558" type="line" name="hr00"/>
      <point x="197" y="558" type="line"/>
      <point x="197" y="515" type="line"/>
      <point x="267" y="515" type="line" smooth="yes"/>
      <point x="334" y="515" smooth="yes"/>
      <point x="348" y="498" smooth="yes"/>
      <point x="370" y="471" type="curve" smooth="yes"/>
      <point x="398" y="436" type="line"/>
      <point x="144" y="111" type="line" smooth="yes"/>
      <point x="144" y="111"/>
      <point x="94" y="43"/>
      <point x="-14" y="43" type="curve"/>
      <point x="-14" y="0" type="line"/>
      <point x="362" y="0" type="line"/>
      <point x="362" y="43" type="line"/>
      <point x="280" y="43" type="line"/>
      <point x="245" y="43" smooth="yes"/>
      <point x="219" y="63" smooth="yes"/>
      <point x="219" y="98" type="curve" smooth="yes"/>
      <point x="219" y="117"/>
      <point x="226" y="139"/>
      <point x="242" y="166" type="curve"/>
      <point x="616" y="166" type="line"/>
      <point x="647" y="127" type="line" smooth="yes"/>
      <point x="663" y="107" smooth="yes"/>
      <point x="670" y="90" smooth="yes"/>
      <point x="670" y="76" type="curve" smooth="yes"/>
      <point x="670" y="54"/>
      <point x="649" y="43"/>
      <point x="623" y="43" type="curve"/>
      <point x="557" y="43" type="line"/>
      <point x="557" y="0" type="line"/>
      <point x="1201" y="0" type="line"/>
      <point x="1201" y="43" type="line"/>
      <point x="1102" y="43" type="line"/>
    </contour>
    <contour>
      <point x="423" y="515" type="line"/>
      <point x="484" y="515" type="line"/>
      <point x="864" y="43" type="line"/>
      <point x="804" y="43" type="line"/>
    </contour>
    <contour>
      <point x="426" y="403" type="line"/>
      <point x="583" y="207" type="line"/>
      <point x="274" y="207" type="line"/>
    </contour>
  </outline>
</glyph>
<glyph name="c" format="1">
  <advance width="943"/>
  <unicode hex="0063"/>
  <outline>
    <contour>
      <point x="840" y="32" type="curve"/>
      <point x="897" y="61" smooth="yes"/>
      <point x="930" y="85" smooth="yes"/>
      <point x="930" y="103" type="curve" smooth="yes"/>
      <point x="930" y="119" smooth="yes"/>
      <point x="915" y="123" smooth="yes"/>
      <point x="907" y="123" type="curve" smooth="yes"/>
      <point x="878" y="123" smooth="yes"/>
      <point x="781" y="19" smooth="yes"/>
      <point x="574" y="19" type="curve" smooth="yes" name="hr01"/>
      <point x="452" y="19" smooth="yes"/>
      <point x="411" y="67" smooth="yes"/>
      <point x="411" y="180" type="curve" smooth="yes"/>
      <point x="411" y="415" type="line" smooth="yes"/>
      <point x="411" y="484" smooth="yes"/>
      <point x="440" y="537" smooth="yes"/>
      <point x="537" y="537" type="curve" smooth="yes"/>
      <point x="670" y="537"/>
      <point x="805" y="408"/>
      <point x="846" y="351" type="curve"/>
      <point x="891" y="351" type="line"/>
      <point x="891" y="559" type="line" name="hr02"/>
      <point x="844" y="559" type="line"/>
      <point x="844" y="519" type="line"/>
      <point x="759" y="549" smooth="yes"/>
      <point x="654" y="580" smooth="yes"/>
      <point x="541" y="580" type="curve" smooth="yes" name="hr03"/>
      <point x="303" y="580" smooth="yes"/>
      <point x="22" y="497" smooth="yes"/>
      <point x="22" y="281" type="curve" smooth="yes"/>
      <point x="22" y="67" smooth="yes"/>
      <point x="278" y="-22" smooth="yes"/>
      <point x="571" y="-22" type="curve" smooth="yes"/>
      <point x="701" y="-22" smooth="yes"/>
      <point x="783" y="4" smooth="yes"/>
    </contour>
    <contour>
      <point x="132" y="279" type="curve"/>
      <point x="132" y="175"/>
      <point x="202" y="95"/>
      <point x="289" y="46" type="curve"/>
      <point x="287" y="42" type="line"/>
      <point x="174" y="88" smooth="yes"/>
      <point x="77" y="174" smooth="yes"/>
      <point x="77" y="279" type="curve" smooth="yes"/>
      <point x="77" y="385"/>
      <point x="174" y="471"/>
      <point x="287" y="517" type="curve"/>
      <point x="289" y="513" type="line"/>
      <point x="202" y="464" smooth="yes"/>
      <point x="132" y="384" smooth="yes"/>
    </contour>
  </outline>
</glyph>
<glyph name="e" format="1">
  <advance width="1184"/>
  <unicode hex="0065"/>
  <outline>
    <contour>
      <point x="697" y="515" type="curve" name="hr00"/>
      <point x="906" y="515"/>
      <point x="1021" y="432"/>
      <point x="1075" y="358" type="curve"/>
      <point x="1104" y="358" type="line"/>
      <point x="1104" y="558" type="line"/>
      <point x="73" y="558" type="line"/>
      <point x="73" y="515" type="line"/>
      <point x="178" y="515" type="line" smooth="yes"/>
      <point x="228" y="515" smooth="yes"/>
      <point x="267" y="474" smooth="yes"/>
      <point x="267" y="426" type="curve" smooth="yes"/>
      <point x="267" y="131" type="line" smooth="yes"/>
      <point x="267" y="65" smooth="yes"/>
      <point x="228" y="43" smooth="yes"/>
      <point x="178" y="43" type="curve" smooth="yes"/>
      <point x="73" y="43" type="line"/>
      <point x="73" y="0" type="line"/>
      <point x="1104" y="0" type="line"/>
      <point x="1104" y="186" type="line"/>
      <point x="1075" y="186" type="line"/>
      <point x="990" y="70" smooth="yes"/>
      <point x="860" y="43" smooth="yes"/>
      <point x="750" y="43" type="curve" smooth="yes"/>
      <point x="673" y="43" type="line" smooth="yes"/>
      <point x="622" y="43" smooth="yes"/>
      <point x="605" y="77" smooth="yes"/>
      <point x="605" y="126" type="curve" smooth="yes"/>
      <point x="605" y="193" type="line" smooth="yes"/>
      <point x="605" y="229" smooth="yes"/>
      <point x="619" y="266" smooth="yes"/>
      <point x="676" y="266" type="curve" smooth="yes"/>
      <point x="749" y="266"/>
      <point x="852" y="230"/>
      <point x="880" y="166" type="curve"/>
      <point x="917" y="166" type="line"/>
      <point x="917" y="430" type="line"/>
      <point x="880" y="430" type="line"/>
      <point x="852" y="371" smooth="yes"/>
      <point x="749" y="322" smooth="yes"/>
      <point x="676" y="322" type="curve" smooth="yes"/>
      <point x="619" y="322" smooth="yes"/>
      <point x="605" y="360" smooth="yes"/>
      <point x="605" y="395" type="curve" smooth="yes"/>
      <point x="605" y="435" type="line" smooth="yes"/>
      <point x="605" y="482" smooth="yes"/>
      <point x="639" y="515" smooth="yes"/>
    </contour>
    <contour>
      <point x="329" y="43" type="line"/>
      <point x="329" y="515" type="line"/>
      <point x="380" y="515" type="line"/>
      <point x="380" y="43" type="line"/>
    </contour>
  </outline>
</glyph>
<glyph name="i" format="1">
  <advance width="881"/>
  <unicode hex="0069"/>
  <outline>
    <contour>
      <point x="606" y="425" type="line" name="hr00"/>
      <point x="606" y="473" smooth="yes"/>
      <point x="647" y="515" smooth="yes"/>
      <point x="696" y="515" type="curve" smooth="yes"/>
      <point x="802" y="515" type="line"/>
      <point x="802" y="558" type="line"/>
      <point x="73" y="558" type="line"/>
      <point x="73" y="515" type="line"/>
      <point x="179" y="515" type="line" smooth="yes"/>
      <point x="228" y="515" smooth="yes"/>
      <point x="269" y="473" smooth="yes"/>
      <point x="269" y="425" type="curve" smooth="yes"/>
      <point x="269" y="131" type="line" smooth="yes"/>
      <point x="269" y="65" smooth="yes"/>
      <point x="228" y="43" smooth="yes"/>
      <point x="179" y="43" type="curve" smooth="yes"/>
      <point x="73" y="43" type="line"/>
      <point x="73" y="0" type="line"/>
      <point x="802" y="0" type="line"/>
      <point x="802" y="43" type="line"/>
      <point x="696" y="43" type="line" smooth="yes"/>
      <point x="647" y="43"/>
      <point x="606" y="65"/>
      <point x="606" y="131" type="curve"/>
    </contour>
    <contour>
      <point x="382" y="43" type="line"/>
      <point x="331" y="43" type="line"/>
      <point x="331" y="515" type="line"/>
      <point x="382" y="515" type="line"/>
    </contour>
  </outline>
</glyph>
<glyph name="j" format="1">
  <advance width="930"/>
  <unicode hex="006A"/>
  <outline>
    <contour>
      <point x="515" y="176" type="line"/>
      <point x="515" y="106"/>
      <point x="483" y="63"/>
      <point x="465" y="57" type="curve"/>
      <point x="465" y="515" type="line"/>
      <point x="515" y="515" type="line"/>
    </contour>
    <contour>
      <point x="208" y="558" type="line"/>
      <point x="208" y="515" type="line"/>
      <point x="313" y="515" type="line" smooth="yes"/>
      <point x="362" y="515" smooth="yes"/>
      <point x="403" y="473" smooth="yes"/>
      <point x="403" y="425" type="curve" smooth="yes"/>
      <point x="403" y="110" type="line" smooth="yes"/>
      <point x="403" y="44" smooth="yes"/>
      <point x="362" y="21" smooth="yes"/>
      <point x="313" y="21" type="curve" smooth="yes"/>
      <point x="122" y="21"/>
      <point x="32" y="225"/>
      <point x="32" y="225" type="curve"/>
      <point x="-14" y="225" type="line"/>
      <point x="-14" y="0" type="line"/>
      <point x="33" y="0" type="line"/>
      <point x="33" y="45" type="line"/>
      <point x="88" y="18" smooth="yes"/>
      <point x="222" y="-21" smooth="yes"/>
      <point x="369" y="-21" type="curve" smooth="yes" name="hr01"/>
      <point x="660" y="-21" smooth="yes"/>
      <point x="740" y="49" smooth="yes"/>
      <point x="740" y="166" type="curve" smooth="yes"/>
      <point x="740" y="425" type="line" smooth="yes"/>
      <point x="740" y="473" smooth="yes"/>
      <point x="781" y="515" smooth="yes"/>
      <point x="830" y="515" type="curve" smooth="yes"/>
      <point x="916" y="515" type="line"/>
      <point x="916" y="558" type="line"/>
    </contour>
  </outline>
</glyph>
<glyph name="k" format="1">
  <advance width="1426"/>
  <unicode hex="006B"/>
  <outline>
    <contour>
      <point x="380" y="43" type="line" name="hr00"/>
      <point x="330" y="43" type="line"/>
      <point x="330" y="515" type="line"/>
      <point x="380" y="515" type="line"/>
    </contour>
    <contour>
      <point x="1026" y="43" type="line"/>
      <point x="958" y="43" type="line"/>
      <point x="762" y="275" type="line"/>
      <point x="831" y="275" type="line"/>
    </contour>
    <contour>
      <point x="759" y="0" type="line"/>
      <point x="759" y="43" type="line"/>
      <point x="695" y="43" type="line" smooth="yes"/>
      <point x="645" y="43" smooth="yes"/>
      <point x="605" y="66" smooth="yes"/>
      <point x="605" y="131" type="curve" smooth="yes"/>
      <point x="605" y="217" type="line" smooth="yes"/>
      <point x="605" y="234" smooth="yes"/>
      <point x="611" y="252" smooth="yes"/>
      <point x="638" y="252" type="curve" smooth="yes"/>
      <point x="704" y="252" type="line"/>
      <point x="929" y="0" type="line"/>
      <point x="1404" y="0" type="line"/>
      <point x="1404" y="43" type="line"/>
      <point x="1289" y="43" type="line"/>
      <point x="1036" y="342" type="line" smooth="yes"/>
      <point x="1028" y="352" smooth="yes"/>
      <point x="1024" y="363" smooth="yes"/>
      <point x="1024" y="371" type="curve" smooth="yes"/>
      <point x="1024" y="385" smooth="yes"/>
      <point x="1037" y="399" smooth="yes"/>
      <point x="1048" y="406" type="curve" smooth="yes"/>
      <point x="1074" y="421" smooth="yes"/>
      <point x="1243" y="515" smooth="yes"/>
      <point x="1311" y="515" type="curve" smooth="yes"/>
      <point x="1404" y="515" type="line"/>
      <point x="1404" y="558" type="line"/>
      <point x="896" y="558" type="line"/>
      <point x="896" y="515" type="line"/>
      <point x="983" y="515" smooth="yes"/>
      <point x="1014" y="510" smooth="yes"/>
      <point x="1014" y="481" type="curve" smooth="yes"/>
      <point x="1014" y="454" smooth="yes"/>
      <point x="981" y="428" smooth="yes"/>
      <point x="914" y="396" type="curve" smooth="yes"/>
      <point x="848" y="365" smooth="yes"/>
      <point x="721" y="299" smooth="yes"/>
      <point x="669" y="299" type="curve" smooth="yes"/>
      <point x="651" y="299" type="line" smooth="yes"/>
      <point x="611" y="299" smooth="yes"/>
      <point x="605" y="323" smooth="yes"/>
      <point x="605" y="346" type="curve" smooth="yes"/>
      <point x="605" y="435" type="line" smooth="yes"/>
      <point x="605" y="482" smooth="yes"/>
      <point x="640" y="515" smooth="yes"/>
      <point x="697" y="515" type="curve" smooth="yes"/>
      <point x="795" y="515" type="line"/>
      <point x="795" y="558" type="line"/>
      <point x="73" y="558" type="line"/>
      <point x="73" y="515" type="line"/>
      <point x="178" y="515" type="line" smooth="yes"/>
      <point x="227" y="515" smooth="yes"/>
      <point x="267" y="474" smooth="yes"/>
      <point x="267" y="426" type="curve" smooth="yes"/>
      <point x="267" y="131" type="line" smooth="yes"/>
      <point x="267" y="66" smooth="yes"/>
      <point x="227" y="43" smooth="yes"/>
      <point x="178" y="43" type="curve" smooth="yes"/>
      <point x="73" y="43" type="line"/>
      <point x="73" y="0" type="line"/>
    </contour>
  </outline>
</glyph>
<glyph name="l" format="1">
  <advance width="1080"/>
  <unicode hex="006C"/>
  <outline>
    <contour>
      <point x="605" y="425" type="line" name="hr00"/>
      <point x="605" y="473" smooth="yes"/>
      <point x="645" y="515" smooth="yes"/>
      <point x="695" y="515" type="curve" smooth="yes"/>
      <point x="840" y="515" type="line"/>
      <point x="840" y="558" type="line"/>
      <point x="73" y="558" type="line"/>
      <point x="73" y="515" type="line"/>
      <point x="178" y="515" type="line" smooth="yes"/>
      <point x="227" y="515" smooth="yes"/>
      <point x="267" y="473" smooth="yes"/>
      <point x="267" y="425" type="curve" smooth="yes"/>
      <point x="267" y="131" type="line" smooth="yes"/>
      <point x="267" y="65" smooth="yes"/>
      <point x="227" y="43" smooth="yes"/>
      <point x="178" y="43" type="curve" smooth="yes"/>
      <point x="73" y="43" type="line"/>
      <point x="73" y="0" type="line"/>
      <point x="1066" y="0" type="line"/>
      <point x="1066" y="250" type="line"/>
      <point x="1035" y="250" type="line"/>
      <point x="913" y="77" smooth="yes"/>
      <point x="779" y="42" smooth="yes"/>
      <point x="695" y="42" type="curve" smooth="yes"/>
      <point x="624" y="42"/>
      <point x="605" y="83"/>
      <point x="605" y="131" type="curve"/>
    </contour>
    <contour>
      <point x="330" y="43" type="line"/>
      <point x="330" y="515" type="line"/>
      <point x="380" y="515" type="line"/>
      <point x="380" y="43" type="line"/>
    </contour>
  </outline>
</glyph>
<glyph name="m" format="1">
  <advance width="1592"/>
  <unicode hex="006D"/>
  <outline>
    <contour>
      <point x="1050" y="515" type="line" name="hr00"/>
      <point x="1100" y="515" type="line"/>
      <point x="1100" y="43" type="line"/>
      <point x="1050" y="43" type="line"/>
    </contour>
    <contour>
      <point x="1560" y="515" type="line"/>
      <point x="1560" y="558" type="line"/>
      <point x="976" y="558" type="line"/>
      <point x="929" y="485"/>
      <point x="882" y="410"/>
      <point x="834" y="337" type="curve"/>
      <point x="575" y="558" type="line"/>
      <point x="22" y="558" type="line"/>
      <point x="22" y="515" type="line"/>
      <point x="162" y="515" smooth="yes"/>
      <point x="301" y="442" smooth="yes"/>
      <point x="301" y="328" type="curve" smooth="yes"/>
      <point x="301" y="238" type="line" smooth="yes"/>
      <point x="301" y="94"/>
      <point x="146" y="43"/>
      <point x="33" y="43" type="curve"/>
      <point x="33" y="0" type="line"/>
      <point x="629" y="0" type="line"/>
      <point x="629" y="43" type="line"/>
      <point x="516" y="43" smooth="yes"/>
      <point x="361" y="94" smooth="yes"/>
      <point x="361" y="238" type="curve" smooth="yes"/>
      <point x="361" y="346" type="line"/>
      <point x="686" y="72" type="line"/>
      <point x="733" y="72" type="line"/>
      <point x="817" y="203"/>
      <point x="904" y="337"/>
      <point x="988" y="469" type="curve"/>
      <point x="988" y="131" type="line" smooth="yes"/>
      <point x="988" y="65" smooth="yes"/>
      <point x="948" y="43" smooth="yes"/>
      <point x="898" y="43" type="curve" smooth="yes"/>
      <point x="794" y="43" type="line"/>
      <point x="794" y="0" type="line"/>
      <point x="1560" y="0" type="line"/>
      <point x="1560" y="43" type="line"/>
      <point x="1415" y="43" type="line" smooth="yes"/>
      <point x="1366" y="43" smooth="yes"/>
      <point x="1325" y="65" smooth="yes"/>
      <point x="1325" y="131" type="curve" smooth="yes"/>
      <point x="1325" y="450" type="line" smooth="yes"/>
      <point x="1325" y="499" smooth="yes"/>
      <point x="1366" y="515" smooth="yes"/>
      <point x="1415" y="515" type="curve" smooth="yes"/>
    </contour>
    <contour>
      <point x="714" y="149" type="line"/>
      <point x="696" y="149" type="line"/>
      <point x="551" y="272"/>
      <point x="409" y="392"/>
      <point x="265" y="515" type="curve"/>
      <point x="341" y="515" type="line"/>
      <point x="463" y="410"/>
      <point x="591" y="303"/>
      <point x="714" y="199" type="curve"/>
    </contour>
  </outline>
</glyph>
<glyph name="q" format="1">
  <advance width="1155"/>
  <unicode hex="0071"/>
  <outline>
    <contour>
      <point x="529" y="-23" type="line" name="hr00"/>
      <point x="461" y="-51"/>
      <point x="390" y="-88"/>
      <point x="366" y="-139" type="curve"/>
      <point x="366" y="-179" type="line"/>
      <point x="787" y="-179" type="line"/>
      <point x="787" y="-137" type="line"/>
      <point x="651" y="-137" type="line" smooth="yes"/>
      <point x="632" y="-137" smooth="yes"/>
      <point x="621" y="-116" smooth="yes"/>
      <point x="621" y="-90" type="curve" smooth="yes"/>
      <point x="621" y="-68"/>
      <point x="630" y="-41"/>
      <point x="645" y="-19" type="curve"/>
      <point x="914" y="2" smooth="yes"/>
      <point x="1132" y="126" smooth="yes"/>
      <point x="1132" y="278" type="curve" smooth="yes"/>
      <point x="1132" y="445" smooth="yes"/>
      <point x="917" y="578" smooth="yes"/>
      <point x="578" y="578" type="curve" smooth="yes"/>
      <point x="238" y="578" smooth="yes"/>
      <point x="22" y="445" smooth="yes"/>
      <point x="22" y="278" type="curve" smooth="yes"/>
      <point x="22" y="122"/>
      <point x="245" y="-5"/>
      <point x="528" y="-20" type="curve"/>
    </contour>
    <contour>
      <point x="404" y="278" type="curve"/>
      <point x="404" y="449" smooth="yes"/>
      <point x="441" y="537" smooth="yes"/>
      <point x="578" y="537" type="curve" smooth="yes"/>
      <point x="715" y="537" smooth="yes"/>
      <point x="751" y="449" smooth="yes"/>
      <point x="751" y="278" type="curve" smooth="yes"/>
      <point x="751" y="108" smooth="yes"/>
      <point x="687" y="20" smooth="yes"/>
      <point x="578" y="20" type="curve" smooth="yes"/>
      <point x="468" y="20" smooth="yes"/>
      <point x="404" y="108" smooth="yes"/>
    </contour>
    <contour>
      <point x="557" y="-41" type="line"/>
      <point x="540" y="-57"/>
      <point x="484" y="-110"/>
      <point x="478" y="-137" type="curve"/>
      <point x="431" y="-137" type="line"/>
      <point x="434" y="-109"/>
      <point x="511" y="-59"/>
      <point x="555" y="-38" type="curve"/>
    </contour>
    <contour>
      <point x="141" y="278" type="curve" smooth="yes"/>
      <point x="141" y="162"/>
      <point x="248" y="73"/>
      <point x="397" y="35" type="curve"/>
      <point x="395" y="28" type="line"/>
      <point x="207" y="67" smooth="yes"/>
      <point x="73" y="158" smooth="yes"/>
      <point x="73" y="279" type="curve" smooth="yes"/>
      <point x="73" y="399"/>
      <point x="207" y="490"/>
      <point x="396" y="528" type="curve"/>
      <point x="398" y="522" type="line"/>
      <point x="248" y="484" smooth="yes"/>
      <point x="141" y="396" smooth="yes"/>
    </contour>
    <contour>
      <point x="782" y="515" type="line"/>
      <point x="851" y="457" smooth="yes"/>
      <point x="894" y="374" smooth="yes"/>
      <point x="894" y="279" type="curve" smooth="yes"/>
      <point x="894" y="182"/>
      <point x="850" y="99"/>
      <point x="781" y="41" type="curve"/>
      <point x="777" y="44" type="line"/>
      <point x="807" y="117" smooth="yes"/>
      <point x="825" y="195" smooth="yes"/>
      <point x="825" y="278" type="curve" smooth="yes"/>
      <point x="825" y="362"/>
      <point x="807" y="441"/>
      <point x="778" y="512" type="curve"/>
    </contour>
  </outline>
</glyph>
<glyph name="r" format="1">
  <advance width="1365"/>
  <unicode hex="0072"/>
  <outline>
    <contour>
      <point x="967" y="254" type="line" name="hr00"/>
      <point x="1113" y="256" smooth="yes"/>
      <point x="1291" y="274" smooth="yes"/>
      <point x="1291" y="401" type="curve" smooth="yes"/>
      <point x="1291" y="542" smooth="yes"/>
      <point x="1115" y="559" smooth="yes"/>
      <point x="989" y="559" type="curve" smooth="yes"/>
      <point x="843" y="559"/>
      <point x="73" y="558"/>
      <point x="73" y="558" type="curve"/>
      <point x="73" y="515" type="line"/>
      <point x="179" y="515" type="line" smooth="yes"/>
      <point x="229" y="515" smooth="yes"/>
      <point x="269" y="474" smooth="yes"/>
      <point x="269" y="425" type="curve" smooth="yes"/>
      <point x="269" y="132" type="line" smooth="yes"/>
      <point x="269" y="66" smooth="yes"/>
      <point x="229" y="43" smooth="yes"/>
      <point x="179" y="43" type="curve" smooth="yes"/>
      <point x="73" y="43" type="line"/>
      <point x="73" y="0" type="line"/>
      <point x="761" y="0" type="line"/>
      <point x="761" y="43" type="line"/>
      <point x="696" y="43" type="line" smooth="yes"/>
      <point x="646" y="43" smooth="yes"/>
      <point x="607" y="66" smooth="yes"/>
      <point x="607" y="132" type="curve" smooth="yes"/>
      <point x="607" y="195" type="line" smooth="yes"/>
      <point x="607" y="235" smooth="yes"/>
      <point x="607" y="253" smooth="yes"/>
      <point x="628" y="253" type="curve" smooth="yes"/>
      <point x="647" y="253" smooth="yes"/>
      <point x="673" y="219" smooth="yes"/>
      <point x="673" y="219" type="curve" smooth="yes"/>
      <point x="844" y="0" type="line"/>
      <point x="1352" y="0" type="line"/>
      <point x="1352" y="43" type="line"/>
      <point x="1249" y="43" type="line"/>
      <point x="1136" y="184" type="line"/>
      <point x="1053" y="197"/>
      <point x="991" y="228"/>
      <point x="967" y="248" type="curve"/>
    </contour>
    <contour>
      <point x="331" y="43" type="line"/>
      <point x="331" y="515" type="line"/>
      <point x="382" y="515" type="line"/>
      <point x="382" y="43" type="line"/>
    </contour>
    <contour>
      <point x="607" y="474" type="line"/>
      <point x="607" y="497" smooth="yes"/>
      <point x="625" y="515" smooth="yes"/>
      <point x="647" y="515" type="curve" smooth="yes"/>
      <point x="747" y="515" type="line" smooth="yes"/>
      <point x="792" y="515" smooth="yes"/>
      <point x="883" y="487" smooth="yes"/>
      <point x="883" y="400" type="curve" smooth="yes"/>
      <point x="883" y="328" smooth="yes"/>
      <point x="812" y="302" smooth="yes"/>
      <point x="741" y="302" type="curve" smooth="yes"/>
      <point x="673" y="302" smooth="yes"/>
      <point x="607" y="326" smooth="yes"/>
      <point x="607" y="354" type="curve" smooth="yes"/>
    </contour>
    <contour>
      <point x="722" y="253" type="line"/>
      <point x="786" y="253" type="line"/>
      <point x="841" y="183"/>
      <point x="895" y="113"/>
      <point x="949" y="43" type="curve"/>
      <point x="886" y="43" type="line"/>
    </contour>
    <contour>
      <point x="1021" y="400" type="curve"/>
      <point x="1021" y="354"/>
      <point x="988" y="308"/>
      <point x="949" y="291" type="curve"/>
      <point x="945" y="294" type="line"/>
      <point x="962" y="324" smooth="yes"/>
      <point x="967" y="362" smooth="yes"/>
      <point x="967" y="400" type="curve" smooth="yes"/>
      <point x="967" y="438"/>
      <point x="962" y="476"/>
      <point x="945" y="506" type="curve"/>
      <point x="949" y="509" type="line"/>
      <point x="988" y="492" smooth="yes"/>
      <point x="1021" y="446" smooth="yes"/>
    </contour>
  </outline>
</glyph>
<glyph name="x" format="1">
  <advance width="1176"/>
  <unicode hex="0078"/>
  <outline>
    <contour>
      <point x="1093" y="43" type="line"/>
      <point x="1043" y="43" smooth="yes"/>
      <point x="979" y="66" smooth="yes"/>
      <point x="913" y="133" type="curve" smooth="yes"/>
      <point x="852" y="194"/>
      <point x="792" y="257"/>
      <point x="730" y="321" type="curve"/>
      <point x="923" y="446" type="line" smooth="yes"/>
      <point x="957" y="468" smooth="yes"/>
      <point x="1039" y="514" smooth="yes"/>
      <point x="1104" y="515" type="curve" smooth="yes"/>
      <point x="1136" y="515" type="line"/>
      <point x="1136" y="557" type="line" name="hr01"/>
      <point x="716" y="557" type="line"/>
      <point x="716" y="515" type="line" name="hr02"/>
      <point x="735" y="515" type="line" smooth="yes"/>
      <point x="754" y="515" smooth="yes"/>
      <point x="784" y="497" smooth="yes"/>
      <point x="784" y="467" type="curve" smooth="yes"/>
      <point x="784" y="445" smooth="yes"/>
      <point x="764" y="417" smooth="yes"/>
      <point x="711" y="379" type="curve" smooth="yes"/>
      <point x="689" y="363" type="line"/>
      <point x="610" y="445" type="line" smooth="yes"/>
      <point x="599" y="456" smooth="yes"/>
      <point x="589" y="473" smooth="yes"/>
      <point x="589" y="488" type="curve" smooth="yes"/>
      <point x="589" y="503" smooth="yes"/>
      <point x="599" y="515" smooth="yes"/>
      <point x="627" y="515" type="curve" smooth="yes"/>
      <point x="645" y="515" type="line"/>
      <point x="645" y="558" type="line"/>
      <point x="56" y="558" type="line"/>
      <point x="56" y="515" type="line"/>
      <point x="111" y="515" type="line" smooth="yes"/>
      <point x="160" y="515" smooth="yes"/>
      <point x="244" y="472" smooth="yes"/>
      <point x="292" y="423" type="curve" smooth="yes"/>
      <point x="455" y="256" type="line"/>
      <point x="226" y="108" type="line" smooth="yes"/>
      <point x="195" y="88" smooth="yes"/>
      <point x="114" y="43" smooth="yes"/>
      <point x="44" y="43" type="curve" smooth="yes"/>
      <point x="13" y="43" type="line"/>
      <point x="13" y="0" type="line"/>
      <point x="497" y="0" type="line"/>
      <point x="497" y="43" type="line"/>
      <point x="414" y="43" type="line" smooth="yes"/>
      <point x="395" y="43" smooth="yes"/>
      <point x="364" y="59" smooth="yes"/>
      <point x="364" y="89" type="curve" smooth="yes"/>
      <point x="364" y="111" smooth="yes"/>
      <point x="386" y="143" smooth="yes"/>
      <point x="437" y="177" type="curve" smooth="yes"/>
      <point x="495" y="215" type="line"/>
      <point x="598" y="110" type="line" smooth="yes"/>
      <point x="610" y="98" smooth="yes"/>
      <point x="617" y="83" smooth="yes"/>
      <point x="617" y="71" type="curve" smooth="yes"/>
      <point x="617" y="55" smooth="yes"/>
      <point x="605" y="43" smooth="yes"/>
      <point x="577" y="43" type="curve" smooth="yes"/>
      <point x="540" y="43" type="line"/>
      <point x="540" y="0" type="line"/>
      <point x="1163" y="0" type="line"/>
      <point x="1163" y="43" type="line"/>
    </contour>
    <contour>
      <point x="267" y="515" type="line"/>
      <point x="335" y="515" type="line"/>
      <point x="795" y="43" type="line"/>
      <point x="727" y="43" type="line"/>
    </contour>
  </outline>
</glyph>
<glyph name="y" format="1">
  <advance width="1115"/>
  <unicode hex="0079"/>
  <outline>
    <contour>
      <point x="679" y="515" type="line" name="hr00"/>
      <point x="724" y="515" type="line" smooth="yes"/>
      <point x="777" y="515" smooth="yes"/>
      <point x="805" y="490" smooth="yes"/>
      <point x="805" y="457" type="curve" smooth="yes"/>
      <point x="805" y="429" smooth="yes"/>
      <point x="785" y="394" smooth="yes"/>
      <point x="744" y="360" type="curve" smooth="yes"/>
      <point x="697" y="321" type="line"/>
      <point x="589" y="427" type="line" smooth="yes"/>
      <point x="572" y="443" smooth="yes"/>
      <point x="563" y="464" smooth="yes"/>
      <point x="563" y="479" type="curve" smooth="yes"/>
      <point x="563" y="499" smooth="yes"/>
      <point x="578" y="515" smooth="yes"/>
      <point x="602" y="515" type="curve" smooth="yes"/>
      <point x="629" y="515" type="line"/>
      <point x="629" y="558" type="line"/>
      <point x="-14" y="558" type="line"/>
      <point x="-14" y="515" type="line"/>
      <point x="75" y="515" type="line"/>
      <point x="362" y="231" type="line"/>
      <point x="362" y="131" type="line" smooth="yes"/>
      <point x="362" y="66" smooth="yes"/>
      <point x="321" y="43" smooth="yes"/>
      <point x="273" y="43" type="curve" smooth="yes"/>
      <point x="166" y="43" type="line"/>
      <point x="166" y="0" type="line"/>
      <point x="895" y="0" type="line"/>
      <point x="895" y="43" type="line"/>
      <point x="789" y="43" type="line" smooth="yes"/>
      <point x="740" y="43" smooth="yes"/>
      <point x="699" y="66" smooth="yes"/>
      <point x="699" y="131" type="curve" smooth="yes"/>
      <point x="699" y="249" type="line"/>
      <point x="1071" y="515" type="line"/>
      <point x="1129" y="515" type="line"/>
      <point x="1129" y="558" type="line"/>
      <point x="679" y="558" type="line"/>
    </contour>
    <contour>
      <point x="474" y="43" type="line"/>
      <point x="425" y="43" type="line"/>
      <point x="425" y="251" type="line"/>
      <point x="158" y="515" type="line"/>
      <point x="224" y="515" type="line"/>
      <point x="474" y="269" type="line"/>
    </contour>
  </outline>
</glyph>
<glyph name="braceright" format="1">
  <advance width="805"/>
  <unicode hex="007D"/>
  <outline>
    <contour>
      <point x="762" y="281" type="line" name="hr00"/>
      <point x="692" y="281" smooth="yes"/>
      <point x="661" y="267" smooth="yes"/>
      <point x="661" y="192" type="curve" smooth="yes"/>
      <point x="661" y="103"/>
      <point x="579" y="-117"/>
      <point x="121" y="-117" type="curve"/>
      <point x="121" y="-63" type="line"/>
      <point x="121" y="-63" smooth="yes"/>
      <point x="307" y="-54" smooth="yes"/>
      <point x="307" y="139" type="curve" smooth="yes"/>
      <point x="307" y="291"/>
      <point x="364" y="302"/>
      <point x="448" y="302" type="curve"/>
      <point x="448" y="318" type="line"/>
      <point x="364" y="318" smooth="yes"/>
      <point x="307" y="329" smooth="yes"/>
      <point x="307" y="481" type="curve" smooth="yes"/>
      <point x="307" y="674"/>
      <point x="121" y="683"/>
      <point x="121" y="683" type="curve"/>
      <point x="121" y="737" type="line"/>
      <point x="579" y="737" smooth="yes"/>
      <point x="661" y="517" smooth="yes"/>
      <point x="661" y="428" type="curve" smooth="yes"/>
      <point x="661" y="353"/>
      <point x="692" y="339"/>
      <point x="762" y="339" type="curve"/>
    </contour>
    <contour>
      <point x="498" y="346" type="line"/>
      <point x="472" y="356" smooth="yes"/>
      <point x="452" y="381" smooth="yes"/>
      <point x="452" y="436" type="curve" smooth="yes"/>
      <point x="452" y="576"/>
      <point x="401" y="646"/>
      <point x="220" y="694" type="curve"/>
      <point x="218" y="687" type="line"/>
      <point x="347" y="643" smooth="yes"/>
      <point x="379" y="595" smooth="yes"/>
      <point x="379" y="436" type="curve" smooth="yes"/>
      <point x="379" y="356"/>
      <point x="428" y="338"/>
      <point x="498" y="338" type="curve"/>
    </contour>
    <contour>
      <point x="498" y="282" type="line"/>
      <point x="428" y="282" smooth="yes"/>
      <point x="379" y="264" smooth="yes"/>
      <point x="379" y="184" type="curve" smooth="yes"/>
      <point x="379" y="25"/>
      <point x="347" y="-23"/>
      <point x="218" y="-67" type="curve"/>
      <point x="220" y="-74" type="line"/>
      <point x="401" y="-26" smooth="yes"/>
      <point x="452" y="44" smooth="yes"/>
      <point x="452" y="184" type="curve" smooth="yes"/>
      <point x="452" y="239"/>
      <point x="472" y="264"/>
      <point x="498" y="274" type="curve"/>
    </contour>
  </outline>
</glyph>
<glyph name="exclamdown" format="1">
  <advance width="679"/>
  <unicode hex="00A1"/>
  <outline>
    <contour>
      <point x="567" y="662" type="curve"/>
      <point x="567" y="739" smooth="yes"/>
      <point x="464" y="801" smooth="yes"/>
      <point x="338" y="801" type="curve" smooth="yes"/>
      <point x="210" y="801" smooth="yes"/>
      <point x="108" y="739" smooth="yes"/>
      <point x="108" y="662" type="curve" smooth="yes"/>
      <point x="108" y="585" smooth="yes"/>
      <point x="210" y="523" smooth="yes"/>
      <point x="338" y="523" type="curve" smooth="yes"/>
      <point x="464" y="523" smooth="yes"/>
      <point x="567" y="585" smooth="yes"/>
    </contour>
    <contour>
      <point x="537" y="93" type="curve"/>
      <point x="537" y="169" smooth="yes"/>
      <point x="386" y="478" smooth="yes"/>
      <point x="338" y="478" type="curve" smooth="yes"/>
      <point x="291" y="478" smooth="yes"/>
      <point x="139" y="169" smooth="yes"/>
      <point x="139" y="93" type="curve" smooth="yes" name="hr01"/>
      <point x="139" y="15" smooth="yes"/>
      <point x="210" y="-26" smooth="yes"/>
      <point x="338" y="-26" type="curve" smooth="yes"/>
      <point x="464" y="-26" smooth="yes"/>
      <point x="537" y="15" smooth="yes"/>
    </contour>
    <contour>
      <point x="298" y="16" type="line"/>
      <point x="249" y="25" smooth="yes"/>
      <point x="206" y="47" smooth="yes"/>
      <point x="206" y="80" type="curve" smooth="yes"/>
      <point x="206" y="134"/>
      <point x="287" y="334"/>
      <point x="338" y="423" type="curve"/>
      <point x="368" y="375" type="line"/>
      <point x="319" y="276" smooth="yes"/>
      <point x="255" y="115" smooth="yes"/>
      <point x="254" y="69" type="curve" smooth="yes"/>
      <point x="254" y="52"/>
      <point x="277" y="34"/>
      <point x="302" y="25" type="curve"/>
    </contour>
    <contour>
      <point x="236" y="662" type="curve"/>
      <point x="236" y="626"/>
      <point x="252" y="593"/>
      <point x="276" y="570" type="curve"/>
      <point x="273" y="565" type="line"/>
      <point x="219" y="585" smooth="yes"/>
      <point x="182" y="622" smooth="yes"/>
      <point x="182" y="662" type="curve" smooth="yes" name="hr02"/>
      <point x="182" y="702"/>
      <point x="219" y="739"/>
      <point x="273" y="759" type="curve"/>
      <point x="276" y="754" type="line"/>
      <point x="252" y="731" smooth="yes"/>
      <point x="236" y="698" smooth="yes"/>
    </contour>
  </outline>
</glyph>
<glyph name="cent" format="1">
  <advance width="943"/>
  <unicode hex="00A2"/>
  <outline>
    <contour>
      <point x="480" y="-110" type="line" name="hr00"/>
      <point x="530" y="-110" type="line"/>
      <point x="530" y="47" type="line"/>
      <point x="480" y="47" type="line"/>
    </contour>
    <contour>
      <point x="480" y="597" type="line"/>
      <point x="530" y="597" type="line"/>
      <point x="530" y="760" type="line"/>
      <point x="480" y="760" type="line"/>
    </contour>
    <component  base="c" yOffset="49"/>
  </outline>
</glyph>
<glyph name="dieresis" format="1">
  <advance width="885"/>
  <unicode hex="00A8"/>
  <outline>
    <contour>
      <point x="807" y="706" type="curve" name="hr00"/>
      <point x="807" y="769" smooth="yes"/>
      <point x="746" y="821" smooth="yes"/>
      <point x="669" y="821" type="curve" smooth="yes"/>
      <point x="594" y="821" smooth="yes"/>
      <point x="533" y="769" smooth="yes"/>
      <point x="533" y="706" type="curve" smooth="yes"/>
      <point x="533" y="643" smooth="yes"/>
      <point x="594" y="593" smooth="yes"/>
      <point x="669" y="593" type="curve" smooth="yes"/>
      <point x="746" y="593" smooth="yes"/>
      <point x="807" y="643" smooth="yes"/>
    </contour>
    <contour>
      <point x="351" y="706" type="curve"/>
      <point x="351" y="769" smooth="yes"/>
      <point x="290" y="821" smooth="yes"/>
      <point x="213" y="821" type="curve" smooth="yes"/>
      <point x="138" y="821" smooth="yes"/>
      <point x="77" y="769" smooth="yes"/>
      <point x="77" y="706" type="curve" smooth="yes"/>
      <point x="77" y="643" smooth="yes"/>
      <point x="138" y="593" smooth="yes"/>
      <point x="213" y="593" type="curve" smooth="yes"/>
      <point x="290" y="593" smooth="yes"/>
      <point x="351" y="643" smooth="yes"/>
    </contour>
    <contour>
      <point x="155" y="706" type="curve"/>
      <point x="155" y="670"/>
      <point x="167" y="640"/>
      <point x="186" y="619" type="curve"/>
      <point x="183" y="616" type="line"/>
      <point x="143" y="633" smooth="yes"/>
      <point x="114" y="668" smooth="yes"/>
      <point x="114" y="706" type="curve" smooth="yes"/>
      <point x="114" y="744"/>
      <point x="143" y="779"/>
      <point x="183" y="796" type="curve"/>
      <point x="186" y="793" type="line"/>
      <point x="167" y="772" smooth="yes"/>
      <point x="155" y="742" smooth="yes"/>
    </contour>
    <contour>
      <point x="611" y="706" type="curve" smooth="yes"/>
      <point x="611" y="670"/>
      <point x="623" y="640"/>
      <point x="642" y="619" type="curve"/>
      <point x="639" y="616" type="line"/>
      <point x="599" y="633" smooth="yes"/>
      <point x="570" y="668" smooth="yes"/>
      <point x="570" y="706" type="curve" smooth="yes"/>
      <point x="570" y="744"/>
      <point x="599" y="779"/>
      <point x="639" y="796" type="curve"/>
      <point x="642" y="793" type="line"/>
      <point x="623" y="772" smooth="yes"/>
      <point x="611" y="742" smooth="yes"/>
    </contour>
  </outline>
</glyph>
<glyph name="ordfeminine" format="1">
  <advance width="793"/>
  <unicode hex="00AA"/>
  <outline>
    <contour>
      <point x="693" y="348" type="line"/>
      <point x="755" y="348" type="line"/>
      <point x="755" y="308" type="line"/>
      <point x="362" y="308" type="line"/>
      <point x="362" y="348" type="line"/>
      <point x="409" y="348" type="line" smooth="yes" name="hr01"/>
      <point x="420" y="348" smooth="yes"/>
      <point x="429" y="352" smooth="yes"/>
      <point x="429" y="361" type="curve" smooth="yes"/>
      <point x="429" y="367" smooth="yes"/>
      <point x="425" y="374" smooth="yes"/>
      <point x="417" y="385" type="curve" smooth="yes"/>
      <point x="401" y="405" type="line"/>
      <point x="191" y="405" type="line"/>
      <point x="184" y="391" smooth="yes"/>
      <point x="180" y="381" smooth="yes"/>
      <point x="180" y="373" type="curve" smooth="yes"/>
      <point x="180" y="358" smooth="yes"/>
      <point x="193" y="348" smooth="yes"/>
      <point x="208" y="348" type="curve" smooth="yes"/>
      <point x="264" y="348" type="line"/>
      <point x="264" y="308" type="line"/>
      <point x="29" y="308" type="line"/>
      <point x="29" y="348" type="line"/>
      <point x="94" y="348" smooth="yes"/>
      <point x="121" y="386" smooth="yes"/>
      <point x="121" y="386" type="curve" smooth="yes"/>
      <point x="268" y="571" type="line"/>
      <point x="254" y="588" type="line" smooth="yes"/>
      <point x="254" y="588" smooth="yes"/>
      <point x="238" y="610" smooth="yes"/>
      <point x="200" y="610" type="curve" smooth="yes"/>
      <point x="152" y="610" type="line"/>
      <point x="152" y="650" type="line"/>
      <point x="451" y="650" type="line"/>
    </contour>
    <contour>
      <point x="503" y="348" type="line"/>
      <point x="545" y="348" type="line"/>
      <point x="337" y="610" type="line"/>
      <point x="294" y="610" type="line"/>
    </contour>
    <contour>
      <point x="219" y="444" type="line"/>
      <point x="370" y="444" type="line"/>
      <point x="294" y="539" type="line"/>
    </contour>
  </outline>
</glyph>
<glyph name="macron" format="1">
  <advance width="505"/>
  <unicode hex="00AF"/>
  <outline>
    <contour>
      <point x="50" y="630" type="line"/>
      <point x="455" y="630" type="line"/>
      <point x="455" y="764" type="line"/>
      <point x="50" y="764" type="line"/>
    </contour>
    <contour>
      <point x="165" y="650" type="line" name="hr01"/>
      <point x="111" y="650" type="line"/>
      <point x="111" y="744" type="line"/>
      <point x="165" y="744" type="line"/>
    </contour>
  </outline>
</glyph>
<glyph name="cedilla" format="1">
  <advance width="566"/>
  <unicode hex="00B8"/>
  <outline>
    <contour>
      <point x="50" y="-188" type="line"/>
      <point x="101" y="-207" smooth="yes"/>
      <point x="188" y="-223" smooth="yes"/>
      <point x="283" y="-223" type="curve" smooth="yes"/>
      <point x="391" y="-223" smooth="yes"/>
      <point x="516" y="-212" smooth="yes"/>
      <point x="516" y="-133" type="curve" smooth="yes"/>
      <point x="516" y="-35"/>
      <point x="345" y="16"/>
      <point x="175" y="16" type="curve"/>
      <point x="175" y="0" type="line"/>
      <point x="263" y="-13" smooth="yes"/>
      <point x="306" y="-50" smooth="yes"/>
      <point x="306" y="-105" type="curve" smooth="yes"/>
      <point x="306" y="-154" smooth="yes"/>
      <point x="271" y="-175" smooth="yes"/>
      <point x="228" y="-175" type="curve" smooth="yes"/>
      <point x="175" y="-175"/>
      <point x="110" y="-132"/>
      <point x="89" y="-79" type="curve"/>
      <point x="50" y="-79" type="line"/>
    </contour>
    <contour>
      <point x="324" y="-24" type="line"/>
      <point x="376" y="-41" smooth="yes"/>
      <point x="416" y="-65" smooth="yes"/>
      <point x="416" y="-107" type="curve" smooth="yes" name="hr01"/>
      <point x="416" y="-146"/>
      <point x="364" y="-178"/>
      <point x="324" y="-188" type="curve"/>
      <point x="321" y="-182" type="line"/>
      <point x="349" y="-169" smooth="yes"/>
      <point x="366" y="-137" smooth="yes"/>
      <point x="366" y="-107" type="curve" smooth="yes"/>
      <point x="366" y="-74"/>
      <point x="351" y="-49"/>
      <point x="320" y="-30" type="curve"/>
    </contour>
  </outline>
</glyph>
<glyph name="ordmasculine" format="1">
  <advance width="718"/>
  <unicode hex="00BA"/>
  <outline>
    <contour>
      <point x="688" y="483" type="curve" smooth="yes"/>
      <point x="688" y="585" smooth="yes"/>
      <point x="560" y="670" smooth="yes"/>
      <point x="359" y="670" type="curve" smooth="yes"/>
      <point x="159" y="670" smooth="yes"/>
      <point x="30" y="585" smooth="yes"/>
      <point x="30" y="483" type="curve" smooth="yes"/>
      <point x="30" y="379" smooth="yes"/>
      <point x="178" y="295" smooth="yes"/>
      <point x="359" y="295" type="curve" smooth="yes"/>
      <point x="541" y="295" smooth="yes"/>
      <point x="688" y="379" smooth="yes"/>
    </contour>
    <contour>
      <point x="359" y="626" type="curve" smooth="yes"/>
      <point x="436" y="626" smooth="yes"/>
      <point x="456" y="577" smooth="yes"/>
      <point x="456" y="482" type="curve" smooth="yes"/>
      <point x="456" y="386" smooth="yes"/>
      <point x="420" y="338" smooth="yes"/>
      <point x="359" y="338" type="curve" smooth="yes"/>
      <point x="298" y="338" smooth="yes"/>
      <point x="263" y="386" smooth="yes"/>
      <point x="263" y="482" type="curve" smooth="yes"/>
      <point x="263" y="577" smooth="yes"/>
      <point x="284" y="626" smooth="yes"/>
    </contour>
    <contour>
      <point x="256" y="626" type="line"/>
      <point x="168" y="601" smooth="yes"/>
      <point x="115" y="544" smooth="yes"/>
      <point x="115" y="483" type="curve" smooth="yes" name="hr01"/>
      <point x="115" y="422"/>
      <point x="173" y="366"/>
      <point x="256" y="340" type="curve"/>
      <point x="256" y="335" type="line"/>
      <point x="151" y="358" smooth="yes"/>
      <point x="75" y="416" smooth="yes"/>
      <point x="75" y="483" type="curve" smooth="yes"/>
      <point x="75" y="550"/>
      <point x="143" y="608"/>
      <point x="256" y="630" type="curve"/>
    </contour>
    <contour>
      <point x="548" y="483" type="curve" smooth="yes"/>
      <point x="548" y="421"/>
      <point x="519" y="382"/>
      <point x="486" y="347" type="curve"/>
      <point x="499" y="388" smooth="yes"/>
      <point x="508" y="435" smooth="yes"/>
      <point x="508" y="483" type="curve" smooth="yes"/>
      <point x="508" y="532"/>
      <point x="499" y="578"/>
      <point x="482" y="623" type="curve"/>
      <point x="519" y="586" smooth="yes"/>
      <point x="548" y="545" smooth="yes"/>
    </contour>
  </outline>
</glyph>
<glyph name="guillemotright" format="1">
  <advance width="678"/>
  <unicode hex="00BB"/>
  <outline>
    <contour>
      <point x="353" y="299" type="line" name="hr00"/>
      <point x="80" y="549" type="line"/>
      <point x="80" y="302" type="line"/>
      <point x="192" y="198" type="line"/>
      <point x="80" y="95" type="line"/>
      <point x="80" y="8" type="line"/>
      <point x="353" y="257" type="line"/>
    </contour>
    <contour>
      <point x="118" y="321" type="line"/>
      <point x="118" y="383" type="line"/>
      <point x="256" y="256" type="line"/>
      <point x="222" y="225" type="line"/>
    </contour>
    <contour>
      <point x="678" y="299" type="line"/>
      <point x="405" y="549" type="line"/>
      <point x="405" y="302" type="line"/>
      <point x="517" y="198" type="line"/>
      <point x="405" y="95" type="line"/>
      <point x="405" y="8" type="line"/>
      <point x="678" y="257" type="line"/>
    </contour>
    <contour>
      <point x="443" y="321" type="line"/>
      <point x="443" y="383" type="line"/>
      <point x="581" y="256" type="line"/>
      <point x="547" y="225" type="line"/>
    </contour>
  </outline>
</glyph>
<glyph name="ae" format="1">
  <advance width="1559"/>
  <unicode hex="00E6"/>
  <outline>
    <contour>
      <point x="546" y="558" type="line" name="hr00"/>
      <point x="197" y="558" type="line"/>
      <point x="197" y="515" type="line"/>
      <point x="267" y="515" type="line" smooth="yes"/>
      <point x="334" y="515" smooth="yes"/>
      <point x="348" y="498" smooth="yes"/>
      <point x="370" y="471" type="curve" smooth="yes"/>
      <point x="398" y="436" type="line"/>
      <point x="144" y="111" type="line" smooth="yes"/>
      <point x="144" y="111"/>
      <point x="94" y="43"/>
      <point x="-14" y="43" type="curve"/>
      <point x="-14" y="0" type="line"/>
      <point x="362" y="0" type="line"/>
      <point x="362" y="43" type="line"/>
      <point x="280" y="43" type="line"/>
      <point x="245" y="43" smooth="yes"/>
      <point x="219" y="63" smooth="yes"/>
      <point x="219" y="98" type="curve" smooth="yes"/>
      <point x="219" y="117" smooth="yes"/>
      <point x="224" y="143" smooth="yes"/>
      <point x="242" y="166" type="curve" smooth="yes"/>
    </contour>
    <contour>
      <point x="1072" y="515" type="curve"/>
      <point x="1281" y="515"/>
      <point x="1396" y="432"/>
      <point x="1450" y="358" type="curve"/>
      <point x="1479" y="358" type="line"/>
      <point x="1479" y="558" type="line"/>
      <point x="448" y="558" type="line"/>
      <point x="448" y="515" type="line"/>
      <point x="553" y="515" type="line" smooth="yes"/>
      <point x="603" y="515" smooth="yes"/>
      <point x="642" y="474" smooth="yes"/>
      <point x="642" y="426" type="curve" smooth="yes"/>
      <point x="642" y="131" type="line" smooth="yes"/>
      <point x="642" y="65" smooth="yes"/>
      <point x="603" y="43" smooth="yes"/>
      <point x="553" y="43" type="curve" smooth="yes"/>
      <point x="448" y="43" type="line"/>
      <point x="448" y="0" type="line"/>
      <point x="1479" y="0" type="line"/>
      <point x="1479" y="186" type="line"/>
      <point x="1450" y="186" type="line"/>
      <point x="1365" y="70" smooth="yes"/>
      <point x="1235" y="43" smooth="yes"/>
      <point x="1125" y="43" type="curve" smooth="yes"/>
      <point x="1048" y="43" type="line" smooth="yes"/>
      <point x="997" y="43" smooth="yes"/>
      <point x="980" y="77" smooth="yes"/>
      <point x="980" y="126" type="curve" smooth="yes"/>
      <point x="980" y="193" type="line" smooth="yes"/>
      <point x="980" y="229" smooth="yes"/>
      <point x="994" y="266" smooth="yes"/>
      <point x="1051" y="266" type="curve" smooth="yes"/>
      <point x="1124" y="266"/>
      <point x="1227" y="230"/>
      <point x="1255" y="166" type="curve"/>
      <point x="1292" y="166" type="line"/>
      <point x="1292" y="430" type="line"/>
      <point x="1255" y="430" type="line"/>
      <point x="1227" y="371" smooth="yes"/>
      <point x="1124" y="322" smooth="yes"/>
      <point x="1051" y="322" type="curve" smooth="yes"/>
      <point x="994" y="322" smooth="yes"/>
      <point x="980" y="360" smooth="yes"/>
      <point x="980" y="395" type="curve" smooth="yes"/>
      <point x="980" y="435" type="line" smooth="yes"/>
      <point x="980" y="482" smooth="yes"/>
      <point x="1014" y="515" smooth="yes"/>
    </contour>
    <contour>
      <point x="704" y="43" type="line"/>
      <point x="704" y="515" type="line"/>
      <point x="755" y="515" type="line"/>
      <point x="755" y="43" type="line"/>
    </contour>
    <contour>
      <point x="314" y="271" type="line"/>
      <point x="671" y="271" type="line"/>
      <point x="671" y="317" type="line"/>
      <point x="314" y="317" type="line"/>
    </contour>
  </outline>
</glyph>
<glyph name="eth" format="1">
  <advance width="1144"/>
  <unicode hex="00F0"/>
  <outline>
    <contour>
      <point x="740" y="500" type="curve"/>
      <point x="688" y="509" smooth="yes"/>
      <point x="632" y="515" smooth="yes"/>
      <point x="572" y="515" type="curve" smooth="yes"/>
      <point x="236" y="515" smooth="yes"/>
      <point x="22" y="391" smooth="yes"/>
      <point x="22" y="245" type="curve" smooth="yes"/>
      <point x="22" y="98" smooth="yes"/>
      <point x="269" y="-22" smooth="yes"/>
      <point x="572" y="-22" type="curve" smooth="yes"/>
      <point x="939" y="-22" smooth="yes"/>
      <point x="1104" y="169" smooth="yes"/>
      <point x="1104" y="360" type="curve" smooth="yes"/>
      <point x="1104" y="635" smooth="yes"/>
      <point x="860" y="749" smooth="yes"/>
      <point x="613" y="749" type="curve" smooth="yes"/>
      <point x="465" y="749"/>
      <point x="348" y="721"/>
      <point x="237" y="687" type="curve"/>
      <point x="237" y="724" type="line" name="hr01"/>
      <point x="202" y="724" type="line"/>
      <point x="202" y="566" type="line"/>
      <point x="237" y="566" type="line"/>
      <point x="237" y="566" smooth="yes"/>
      <point x="393" y="706" smooth="yes"/>
      <point x="546" y="706" type="curve" smooth="yes" name="hr02"/>
      <point x="698" y="706"/>
      <point x="740" y="607"/>
    </contour>
    <contour>
      <point x="572" y="471" type="curve" smooth="yes"/>
      <point x="713" y="471" smooth="yes"/>
      <point x="751" y="391" smooth="yes"/>
      <point x="751" y="244" type="curve" smooth="yes"/>
      <point x="751" y="97" smooth="yes"/>
      <point x="685" y="21" smooth="yes"/>
      <point x="572" y="21" type="curve" smooth="yes"/>
      <point x="459" y="21" smooth="yes"/>
      <point x="393" y="97" smooth="yes"/>
      <point x="393" y="244" type="curve" smooth="yes"/>
      <point x="393" y="391" smooth="yes"/>
      <point x="432" y="471" smooth="yes"/>
    </contour>
    <contour>
      <point x="130" y="245" type="curve" smooth="yes"/>
      <point x="130" y="142"/>
      <point x="237" y="63"/>
      <point x="386" y="29" type="curve"/>
      <point x="384" y="22" type="line"/>
      <point x="196" y="57" smooth="yes"/>
      <point x="62" y="138" smooth="yes"/>
      <point x="62" y="245" type="curve" smooth="yes"/>
      <point x="62" y="352"/>
      <point x="196" y="433"/>
      <point x="385" y="467" type="curve"/>
      <point x="387" y="462" type="line"/>
      <point x="237" y="428" smooth="yes"/>
      <point x="130" y="349" smooth="yes"/>
    </contour>
    <contour>
      <point x="771" y="661" type="line"/>
      <point x="840" y="588" smooth="yes"/>
      <point x="883" y="481" smooth="yes"/>
      <point x="883" y="360" type="curve" smooth="yes"/>
      <point x="883" y="238"/>
      <point x="839" y="132"/>
      <point x="770" y="58" type="curve"/>
      <point x="766" y="62" type="line"/>
      <point x="796" y="154" smooth="yes"/>
      <point x="814" y="253" smooth="yes"/>
      <point x="814" y="360" type="curve" smooth="yes"/>
      <point x="814" y="467"/>
      <point x="796" y="568"/>
      <point x="767" y="657" type="curve"/>
    </contour>
    <contour>
      <point x="1134" y="749" type="line"/>
      <point x="843" y="691" type="line"/>
      <point x="843" y="631" type="line"/>
      <point x="1134" y="689" type="line"/>
    </contour>
    <contour>
      <point x="730" y="667" type="line"/>
      <point x="594" y="644" type="line"/>
      <point x="594" y="584" type="line"/>
      <point x="730" y="607" type="line"/>
    </contour>
  </outline>
</glyph>
<glyph name="Hbar" format="1">
  <advance width="1711"/>
  <unicode hex="0126"/>
  <outline>
    <contour>
      <point x="339" y="510" type="line" name="hr00"/>
      <point x="181" y="510" type="line"/>
      <point x="181" y="438" type="line"/>
      <point x="339" y="438" type="line"/>
    </contour>
    <contour>
      <point x="1042" y="510" type="line"/>
      <point x="662" y="510" type="line"/>
      <point x="662" y="438" type="line"/>
      <point x="1042" y="438" type="line"/>
    </contour>
    <contour>
      <point x="1522" y="510" type="line"/>
      <point x="1364" y="510" type="line"/>
      <point x="1364" y="438" type="line"/>
      <point x="1522" y="438" type="line"/>
    </contour>
    <component  base="H"/>
  </outline>
</glyph>
<glyph name="lslash" format="1">
  <advance width="1080"/>
  <unicode hex="0142"/>
  <outline>
    <contour>
      <point x="755" y="418" type="line" name="hr00"/>
      <point x="389" y="300" type="line"/>
      <point x="389" y="220" type="line"/>
      <point x="755" y="338" type="line"/>
    </contour>
    <contour>
      <point x="316" y="276" type="line"/>
      <point x="117" y="212" type="line"/>
      <point x="117" y="132" type="line"/>
      <point x="316" y="196" type="line"/>
    </contour>
    <component  base="l"/>
  </outline>
</glyph>
<glyph name="eng" format="1">
  <advance width="1324"/>
  <unicode hex="014B"/>
  <outline>
    <contour>
      <point x="840" y="154" type="line"/>
      <point x="332" y="473" type="line"/>
      <point x="332" y="515" type="line"/>
      <point x="350" y="515" type="line"/>
      <point x="890" y="177" type="line"/>
      <point x="890" y="-76" type="line" smooth="yes"/>
      <point x="890" y="-145"/>
      <point x="864" y="-182"/>
      <point x="840" y="-195" type="curve"/>
    </contour>
    <contour>
      <point x="778" y="117" type="line"/>
      <point x="778" y="-135" type="line" smooth="yes"/>
      <point x="778" y="-195" smooth="yes"/>
      <point x="757" y="-216" smooth="yes"/>
      <point x="717" y="-216" type="curve" smooth="yes"/>
      <point x="638" y="-216"/>
      <point x="595" y="-152"/>
      <point x="585" y="-76" type="curve"/>
      <point x="546" y="-76" type="line"/>
      <point x="546" y="-260" type="line"/>
      <point x="593" y="-260" type="line"/>
      <point x="593" y="-213" type="line"/>
      <point x="644" y="-259" smooth="yes"/>
      <point x="737" y="-283" smooth="yes"/>
      <point x="832" y="-283" type="curve" smooth="yes"/>
      <point x="983" y="-283" smooth="yes"/>
      <point x="1115" y="-222" smooth="yes"/>
      <point x="1115" y="-86" type="curve" smooth="yes"/>
      <point x="1115" y="352" type="line" smooth="yes"/>
      <point x="1115" y="496"/>
      <point x="1225" y="515"/>
      <point x="1309" y="515" type="curve"/>
      <point x="1309" y="558" type="line"/>
      <point x="861" y="558" type="line"/>
      <point x="861" y="515" type="line"/>
      <point x="945" y="515" smooth="yes"/>
      <point x="1055" y="496" smooth="yes"/>
      <point x="1055" y="352" type="curve" smooth="yes"/>
      <point x="1055" y="335" smooth="yes"/>
      <point x="1044" y="331" smooth="yes"/>
      <point x="1039" y="331" type="curve" smooth="yes"/>
      <point x="1025" y="331" smooth="yes"/>
      <point x="963" y="370" smooth="yes"/>
      <point x="959" y="372" type="curve" smooth="yes"/>
      <point x="664" y="558" type="line"/>
      <point x="23" y="558" type="line"/>
      <point x="23" y="515" type="line"/>
      <point x="163" y="515" smooth="yes"/>
      <point x="301" y="442" smooth="yes"/>
      <point x="301" y="327" type="curve" smooth="yes"/>
      <point x="301" y="239" type="line" smooth="yes"/>
      <point x="301" y="94"/>
      <point x="147" y="43"/>
      <point x="33" y="43" type="curve"/>
      <point x="33" y="0" type="line"/>
      <point x="545" y="0" type="line"/>
      <point x="545" y="43" type="line"/>
      <point x="468" y="43" smooth="yes"/>
      <point x="362" y="94" smooth="yes"/>
      <point x="362" y="239" type="curve" smooth="yes"/>
      <point x="362" y="277" type="line" smooth="yes"/>
      <point x="362" y="323" smooth="yes"/>
      <point x="382" y="334" smooth="yes"/>
      <point x="401" y="334" type="curve" smooth="yes"/>
      <point x="422" y="334" smooth="yes"/>
      <point x="443" y="322" smooth="yes"/>
      <point x="442" y="322" type="curve" smooth="yes"/>
    </contour>
  </outline>
</glyph>
<glyph name="oe" format="1">
  <advance width="1734"/>
  <unicode hex="0153"/>
  <outline>
    <contour>
      <point x="623" y="558" type="line" smooth="yes"/>
      <point x="287" y="558" smooth="yes"/>
      <point x="73" y="435" smooth="yes"/>
      <point x="73" y="281" type="curve" smooth="yes"/>
      <point x="73" y="126" smooth="yes"/>
      <point x="320" y="0" smooth="yes"/>
      <point x="623" y="0" type="curve" smooth="yes"/>
      <point x="1654" y="0" type="line"/>
      <point x="1654" y="186" type="line"/>
      <point x="1625" y="186" type="line"/>
      <point x="1540" y="70" smooth="yes"/>
      <point x="1410" y="43" smooth="yes"/>
      <point x="1300" y="43" type="curve" smooth="yes"/>
      <point x="1223" y="43" type="line" smooth="yes"/>
      <point x="1172" y="43" smooth="yes"/>
      <point x="1155" y="77" smooth="yes"/>
      <point x="1155" y="126" type="curve" smooth="yes"/>
      <point x="1155" y="193" type="line" smooth="yes"/>
      <point x="1155" y="229" smooth="yes"/>
      <point x="1169" y="266" smooth="yes"/>
      <point x="1226" y="266" type="curve" smooth="yes"/>
      <point x="1299" y="266"/>
      <point x="1402" y="230"/>
      <point x="1430" y="166" type="curve"/>
      <point x="1467" y="166" type="line"/>
      <point x="1467" y="430" type="line"/>
      <point x="1430" y="430" type="line"/>
      <point x="1402" y="371" smooth="yes"/>
      <point x="1299" y="322" smooth="yes"/>
      <point x="1226" y="322" type="curve" smooth="yes"/>
      <point x="1169" y="322" smooth="yes"/>
      <point x="1155" y="360" smooth="yes"/>
      <point x="1155" y="395" type="curve" smooth="yes"/>
      <point x="1155" y="435" type="line" smooth="yes"/>
      <point x="1155" y="482" smooth="yes"/>
      <point x="1189" y="515" smooth="yes"/>
      <point x="1247" y="515" type="curve" smooth="yes"/>
      <point x="1456" y="515"/>
      <point x="1571" y="432"/>
      <point x="1625" y="358" type="curve"/>
      <point x="1654" y="358" type="line"/>
      <point x="1654" y="558" type="line"/>
    </contour>
    <contour>
      <point x="181" y="281" type="curve" smooth="yes" name="hr01"/>
      <point x="181" y="171"/>
      <point x="288" y="87"/>
      <point x="437" y="51" type="curve"/>
      <point x="435" y="44" type="line"/>
      <point x="247" y="82" smooth="yes"/>
      <point x="113" y="167" smooth="yes"/>
      <point x="113" y="281" type="curve" smooth="yes"/>
      <point x="113" y="395"/>
      <point x="247" y="481"/>
      <point x="436" y="517" type="curve"/>
      <point x="438" y="511" type="line"/>
      <point x="288" y="475" smooth="yes"/>
      <point x="181" y="392" smooth="yes"/>
    </contour>
    <contour>
      <point x="728" y="515" type="line" smooth="yes"/>
      <point x="778" y="515" smooth="yes"/>
      <point x="817" y="474" smooth="yes"/>
      <point x="817" y="426" type="curve" smooth="yes"/>
      <point x="817" y="131" type="line" smooth="yes"/>
      <point x="817" y="65" smooth="yes"/>
      <point x="778" y="43" smooth="yes"/>
      <point x="728" y="43" type="curve" smooth="yes"/>
      <point x="623" y="43" type="line" smooth="yes"/>
      <point x="510" y="43" smooth="yes"/>
      <point x="444" y="123" smooth="yes"/>
      <point x="444" y="280" type="curve" smooth="yes"/>
      <point x="444" y="436" smooth="yes"/>
      <point x="483" y="515" smooth="yes"/>
      <point x="623" y="515" type="curve" smooth="yes"/>
    </contour>
    <contour>
      <point x="879" y="43" type="line"/>
      <point x="879" y="515" type="line"/>
      <point x="930" y="515" type="line"/>
      <point x="930" y="43" type="line"/>
    </contour>
  </outline>
</glyph>
<glyph name="florin" format="1">
  <advance width="852"/>
  <unicode hex="0192"/>
  <outline>
    <contour>
      <point x="606" y="325" type="line" smooth="yes" name="hr00"/>
      <point x="606" y="391" smooth="yes"/>
      <point x="647" y="414" smooth="yes"/>
      <point x="696" y="414" type="curve" smooth="yes"/>
      <point x="822" y="414" type="line"/>
      <point x="822" y="464" type="line"/>
      <point x="600" y="464" type="line" smooth="yes"/>
      <point x="500" y="464"/>
      <point x="397" y="496"/>
      <point x="397" y="673" type="curve"/>
      <point x="414" y="682" type="line"/>
      <point x="436" y="639" smooth="yes"/>
      <point x="497" y="584" smooth="yes"/>
      <point x="587" y="584" type="curve" smooth="yes"/>
      <point x="689" y="584" smooth="yes"/>
      <point x="770" y="645" smooth="yes"/>
      <point x="770" y="721" type="curve" smooth="yes"/>
      <point x="770" y="795" smooth="yes"/>
      <point x="691" y="855" smooth="yes"/>
      <point x="592" y="855" type="curve" smooth="yes"/>
      <point x="424" y="855"/>
      <point x="333" y="715"/>
      <point x="246" y="464" type="curve"/>
      <point x="246" y="464"/>
      <point x="23" y="464"/>
      <point x="23" y="464" type="curve"/>
      <point x="23" y="414" type="line"/>
      <point x="179" y="414" type="line" smooth="yes"/>
      <point x="228" y="414" smooth="yes"/>
      <point x="269" y="373" smooth="yes"/>
      <point x="269" y="325" type="curve" smooth="yes"/>
      <point x="269" y="-68" type="line" smooth="yes"/>
      <point x="269" y="-116" smooth="yes"/>
      <point x="228" y="-154" smooth="yes"/>
      <point x="179" y="-154" type="curve" smooth="yes"/>
      <point x="73" y="-154" type="line"/>
      <point x="73" y="-199" type="line"/>
      <point x="418" y="-199" type="line" smooth="yes"/>
      <point x="548" y="-199" smooth="yes"/>
      <point x="606" y="-129" smooth="yes"/>
      <point x="606" y="0" type="curve" smooth="yes"/>
    </contour>
    <contour>
      <point x="485" y="721" type="curve" smooth="yes"/>
      <point x="485" y="684"/>
      <point x="496" y="651"/>
      <point x="517" y="625" type="curve"/>
      <point x="472" y="644" smooth="yes"/>
      <point x="440" y="680" smooth="yes"/>
      <point x="440" y="721" type="curve" smooth="yes"/>
      <point x="440" y="760"/>
      <point x="472" y="796"/>
      <point x="517" y="815" type="curve"/>
      <point x="496" y="791" smooth="yes"/>
      <point x="485" y="758" smooth="yes"/>
    </contour>
    <contour>
      <point x="382" y="-43" type="line" smooth="yes"/>
      <point x="382" y="-83"/>
      <point x="366" y="-139"/>
      <point x="258" y="-162" type="curve"/>
      <point x="256" y="-155" type="line"/>
      <point x="321" y="-129" smooth="yes"/>
      <point x="331" y="-79" smooth="yes"/>
      <point x="331" y="-43" type="curve" smooth="yes"/>
      <point x="331" y="301" type="line" smooth="yes"/>
      <point x="331" y="337"/>
      <point x="321" y="387"/>
      <point x="256" y="413" type="curve"/>
      <point x="258" y="420" type="line"/>
      <point x="366" y="397" smooth="yes"/>
      <point x="382" y="341" smooth="yes"/>
      <point x="382" y="301" type="curve" smooth="yes"/>
    </contour>
  </outline>
</glyph>
<glyph name="ogonek" format="1">
  <advance width="566"/>
  <unicode hex="02DB"/>
  <outline>
    <contour>
      <point x="516" y="-80" type="line" name="hr00"/>
      <point x="477" y="-80" type="line"/>
      <point x="456" y="-133" smooth="yes"/>
      <point x="391" y="-176" smooth="yes"/>
      <point x="338" y="-176" type="curve" smooth="yes"/>
      <point x="295" y="-176" smooth="yes"/>
      <point x="260" y="-155" smooth="yes"/>
      <point x="260" y="-106" type="curve" smooth="yes"/>
      <point x="260" y="-51"/>
      <point x="303" y="-7"/>
      <point x="391" y="6" type="curve"/>
      <point x="391" y="22" type="line"/>
      <point x="221" y="11" smooth="yes"/>
      <point x="50" y="-36" smooth="yes"/>
      <point x="50" y="-134" type="curve" smooth="yes"/>
      <point x="50" y="-213" smooth="yes"/>
      <point x="175" y="-224" smooth="yes"/>
      <point x="283" y="-224" type="curve" smooth="yes"/>
      <point x="378" y="-224"/>
      <point x="465" y="-208"/>
      <point x="516" y="-189" type="curve"/>
    </contour>
    <contour>
      <point x="185" y="-44" type="line"/>
      <point x="154" y="-62" smooth="yes"/>
      <point x="140" y="-88" smooth="yes"/>
      <point x="140" y="-119" type="curve" smooth="yes"/>
      <point x="140" y="-148"/>
      <point x="166" y="-184"/>
      <point x="194" y="-196" type="curve"/>
      <point x="192" y="-201" type="line"/>
      <point x="127" y="-193" smooth="yes"/>
      <point x="90" y="-161" smooth="yes"/>
      <point x="90" y="-124" type="curve" smooth="yes"/>
      <point x="90" y="-84"/>
      <point x="130" y="-55"/>
      <point x="182" y="-39" type="curve"/>
    </contour>
  </outline>
</glyph>
<glyph name="pi" format="1">
  <advance width="1353"/>
  <unicode hex="03C0"/>
  <outline>
    <contour>
      <point x="606" y="425" type="line" smooth="yes"/>
      <point x="606" y="473" smooth="yes"/>
      <point x="647" y="515" smooth="yes"/>
      <point x="696" y="515" type="curve" smooth="yes"/>
      <point x="816" y="515" type="line"/>
      <point x="816" y="168" type="line" smooth="yes"/>
      <point x="816" y="50" smooth="yes"/>
      <point x="897" y="-20" smooth="yes"/>
      <point x="1190" y="-20" type="curve" smooth="yes"/>
      <point x="1221" y="-20"/>
      <point x="1252" y="-18"/>
      <point x="1280" y="-16" type="curve"/>
      <point x="1276" y="27" type="line"/>
      <point x="1269" y="27" smooth="yes"/>
      <point x="1258" y="26" smooth="yes"/>
      <point x="1248" y="26" type="curve" smooth="yes"/>
      <point x="1196" y="26" smooth="yes"/>
      <point x="1153" y="50" smooth="yes"/>
      <point x="1153" y="120" type="curve" smooth="yes"/>
      <point x="1153" y="515" type="line"/>
      <point x="1277" y="515" type="line"/>
      <point x="1277" y="558" type="line"/>
      <point x="73" y="558" type="line"/>
      <point x="73" y="515" type="line"/>
      <point x="179" y="515" type="line" smooth="yes"/>
      <point x="228" y="515" smooth="yes"/>
      <point x="269" y="473" smooth="yes"/>
      <point x="269" y="425" type="curve" smooth="yes"/>
      <point x="269" y="131" type="line" smooth="yes"/>
      <point x="269" y="65" smooth="yes"/>
      <point x="228" y="43" smooth="yes"/>
      <point x="179" y="43" type="curve" smooth="yes" name="hr01"/>
      <point x="73" y="43" type="line"/>
      <point x="73" y="0" type="line"/>
      <point x="606" y="0" type="line"/>
    </contour>
    <contour>
      <point x="382" y="43" type="line"/>
      <point x="331" y="43" type="line"/>
      <point x="331" y="515" type="line"/>
      <point x="382" y="515" type="line"/>
    </contour>
    <contour>
      <point x="929" y="54" type="line"/>
      <point x="905" y="64" smooth="yes"/>
      <point x="878" y="94" smooth="yes"/>
      <point x="878" y="178" type="curve" smooth="yes"/>
      <point x="878" y="515" type="line"/>
      <point x="929" y="515" type="line"/>
    </contour>
  </outline>
</glyph>
<glyph name="quoteleft" format="1">
  <advance width="524"/>
  <unicode hex="2018"/>
  <outline>
    <contour>
      <point x="174" y="416" type="curve"/>
      <point x="174" y="383"/>
      <point x="189" y="353"/>
      <point x="211" y="332" type="curve"/>
      <point x="208" y="328" type="line"/>
      <point x="150" y="345" smooth="yes"/>
      <point x="125" y="380" smooth="yes"/>
      <point x="125" y="416" type="curve" smooth="yes"/>
      <point x="125" y="452"/>
      <point x="146" y="492"/>
      <point x="208" y="504" type="curve"/>
      <point x="211" y="500" type="line"/>
      <point x="189" y="479" smooth="yes"/>
      <point x="174" y="449" smooth="yes"/>
    </contour>
    <contour>
      <point x="258" y="290" type="curve" smooth="yes"/>
      <point x="372" y="290" smooth="yes"/>
      <point x="464" y="347" smooth="yes"/>
      <point x="464" y="416" type="curve" smooth="yes" name="hr01"/>
      <point x="464" y="485" smooth="yes"/>
      <point x="372" y="541" smooth="yes"/>
      <point x="258" y="541" type="curve" smooth="yes"/>
      <point x="222" y="541"/>
      <point x="189" y="534"/>
      <point x="159" y="524" type="curve"/>
      <point x="178" y="619"/>
      <point x="347" y="633"/>
      <point x="426" y="633" type="curve"/>
      <point x="426" y="670" type="line"/>
      <point x="171" y="670" smooth="yes"/>
      <point x="60" y="553" smooth="yes"/>
      <point x="60" y="449" type="curve" smooth="yes"/>
      <point x="60" y="365" smooth="yes"/>
      <point x="131" y="290" smooth="yes"/>
    </contour>
  </outline>
</glyph>
<glyph name="quotedblleft" format="1">
  <advance width="988"/>
  <unicode hex="201C"/>
  <outline>
    <contour>
      <point x="174" y="416" type="curve"/>
      <point x="174" y="383"/>
      <point x="189" y="353"/>
      <point x="211" y="332" type="curve"/>
      <point x="208" y="328" type="line"/>
      <point x="150" y="345" smooth="yes"/>
      <point x="125" y="380" smooth="yes"/>
      <point x="125" y="416" type="curve" smooth="yes"/>
      <point x="125" y="452"/>
      <point x="146" y="492"/>
      <point x="208" y="504" type="curve"/>
      <point x="211" y="500" type="line"/>
      <point x="189" y="479" smooth="yes"/>
      <point x="174" y="449" smooth="yes"/>
    </contour>
    <contour>
      <point x="258" y="290" type="curve" smooth="yes"/>
      <point x="372" y="290" smooth="yes"/>
      <point x="464" y="347" smooth="yes"/>
      <point x="464" y="416" type="curve" smooth="yes" name="hr01"/>
      <point x="464" y="485" smooth="yes"/>
      <point x="372" y="541" smooth="yes"/>
      <point x="258" y="541" type="curve" smooth="yes"/>
      <point x="222" y="541"/>
      <point x="189" y="534"/>
      <point x="159" y="524" type="curve"/>
      <point x="178" y="619"/>
      <point x="347" y="633"/>
      <point x="426" y="633" type="curve"/>
      <point x="426" y="670" type="line"/>
      <point x="171" y="670" smooth="yes"/>
      <point x="60" y="553" smooth="yes"/>
      <point x="60" y="449" type="curve" smooth="yes"/>
      <point x="60" y="365" smooth="yes"/>
      <point x="131" y="290" smooth="yes"/>
    </contour>
    <contour>
      <point x="638" y="416" type="curve" smooth="yes"/>
      <point x="638" y="383"/>
      <point x="653" y="353"/>
      <point x="675" y="332" type="curve"/>
      <point x="672" y="328" type="line"/>
      <point x="614" y="345" smooth="yes"/>
      <point x="589" y="380" smooth="yes"/>
      <point x="589" y="416" type="curve" smooth="yes"/>
      <point x="589" y="452"/>
      <point x="610" y="492"/>
      <point x="672" y="504" type="curve"/>
      <point x="675" y="500" type="line"/>
      <point x="653" y="479" smooth="yes"/>
      <point x="638" y="449" smooth="yes"/>
    </contour>
    <contour>
      <point x="722" y="290" type="curve" smooth="yes"/>
      <point x="836" y="290" smooth="yes"/>
      <point x="928" y="347" smooth="yes"/>
      <point x="928" y="416" type="curve" smooth="yes" name="hr02"/>
      <point x="928" y="485" smooth="yes"/>
      <point x="836" y="541" smooth="yes"/>
      <point x="722" y="541" type="curve" smooth="yes"/>
      <point x="686" y="541"/>
      <point x="653" y="534"/>
      <point x="623" y="524" type="curve"/>
      <point x="642" y="619"/>
      <point x="811" y="633"/>
      <point x="890" y="633" type="curve"/>
      <point x="890" y="670" type="line"/>
      <point x="635" y="670" smooth="yes"/>
      <point x="524" y="553" smooth="yes"/>
      <point x="524" y="449" type="curve" smooth="yes"/>
      <point x="524" y="365" smooth="yes"/>
      <point x="595" y="290" smooth="yes"/>
    </contour>
  </outline>
</glyph>
<glyph name="quotedblright" format="1">
  <advance width="988"/>
  <unicode hex="201D"/>
  <outline>
    <contour>
      <point x="150" y="544" type="curve" smooth="yes" name="hr00"/>
      <point x="150" y="511"/>
      <point x="165" y="481"/>
      <point x="187" y="460" type="curve"/>
      <point x="184" y="456" type="line"/>
      <point x="135" y="474" smooth="yes"/>
      <point x="101" y="508" smooth="yes"/>
      <point x="101" y="544" type="curve" smooth="yes"/>
      <point x="101" y="580"/>
      <point x="135" y="614"/>
      <point x="184" y="632" type="curve"/>
      <point x="187" y="628" type="line"/>
      <point x="165" y="607" smooth="yes"/>
      <point x="150" y="577" smooth="yes"/>
    </contour>
    <contour>
      <point x="614" y="544" type="curve" smooth="yes"/>
      <point x="614" y="511"/>
      <point x="629" y="481"/>
      <point x="651" y="460" type="curve"/>
      <point x="648" y="456" type="line"/>
      <point x="599" y="474" smooth="yes"/>
      <point x="565" y="508" smooth="yes"/>
      <point x="565" y="544" type="curve" smooth="yes"/>
      <point x="565" y="580"/>
      <point x="599" y="614"/>
      <point x="648" y="632" type="curve"/>
      <point x="651" y="628" type="line"/>
      <point x="629" y="607" smooth="yes"/>
      <point x="614" y="577" smooth="yes"/>
    </contour>
    <contour>
      <point x="266" y="670" type="curve" smooth="yes"/>
      <point x="152" y="670" smooth="yes"/>
      <point x="60" y="613" smooth="yes"/>
      <point x="60" y="544" type="curve" smooth="yes"/>
      <point x="60" y="475" smooth="yes"/>
      <point x="152" y="419" smooth="yes"/>
      <point x="266" y="419" type="curve" smooth="yes"/>
      <point x="302" y="419"/>
      <point x="335" y="426"/>
      <point x="365" y="436" type="curve"/>
      <point x="346" y="341"/>
      <point x="177" y="327"/>
      <point x="98" y="327" type="curve"/>
      <point x="98" y="290" type="line"/>
      <point x="353" y="290" smooth="yes"/>
      <point x="464" y="407" smooth="yes"/>
      <point x="464" y="511" type="curve" smooth="yes"/>
      <point x="464" y="595" smooth="yes"/>
      <point x="393" y="670" smooth="yes"/>
    </contour>
    <contour>
      <point x="730" y="670" type="curve" smooth="yes"/>
      <point x="616" y="670" smooth="yes"/>
      <point x="524" y="613" smooth="yes"/>
      <point x="524" y="544" type="curve" smooth="yes"/>
      <point x="524" y="475" smooth="yes"/>
      <point x="616" y="419" smooth="yes"/>
      <point x="730" y="419" type="curve" smooth="yes"/>
      <point x="766" y="419"/>
      <point x="799" y="426"/>
      <point x="829" y="436" type="curve"/>
      <point x="810" y="341"/>
      <point x="641" y="327"/>
      <point x="562" y="327" type="curve"/>
      <point x="562" y="290" type="line"/>
      <point x="817" y="290" smooth="yes"/>
      <point x="928" y="407" smooth="yes"/>
      <point x="928" y="511" type="curve" smooth="yes"/>
      <point x="928" y="595" smooth="yes"/>
      <point x="857" y="670" smooth="yes"/>
    </contour>
  </outline>
</glyph>
<glyph name="dagger" format="1">
  <advance width="1071"/>
  <unicode hex="2020"/>
  <outline>
    <contour>
      <point x="711" y="806" type="line" name="hr00"/>
      <point x="360" y="806" type="line"/>
      <point x="360" y="629" type="line" smooth="yes"/>
      <point x="360" y="576" smooth="yes"/>
      <point x="316" y="530" smooth="yes"/>
      <point x="262" y="530" type="curve" smooth="yes"/>
      <point x="63" y="530" type="line"/>
      <point x="63" y="447" type="line"/>
      <point x="266" y="447" type="line" smooth="yes"/>
      <point x="318" y="447" smooth="yes"/>
      <point x="360" y="399" smooth="yes"/>
      <point x="360" y="348" type="curve" smooth="yes"/>
      <point x="360" y="-145" type="line"/>
      <point x="711" y="-145" type="line"/>
      <point x="711" y="348" type="line" smooth="yes"/>
      <point x="711" y="401" smooth="yes"/>
      <point x="756" y="447" smooth="yes"/>
      <point x="810" y="447" type="curve" smooth="yes"/>
      <point x="1008" y="447" type="line"/>
      <point x="1008" y="530" type="line"/>
      <point x="810" y="530" type="line" smooth="yes"/>
      <point x="756" y="530" smooth="yes"/>
      <point x="711" y="576" smooth="yes"/>
      <point x="711" y="629" type="curve" smooth="yes"/>
    </contour>
    <contour>
      <point x="479" y="686" type="line" smooth="yes"/>
      <point x="479" y="597"/>
      <point x="445" y="567"/>
      <point x="421" y="557" type="curve"/>
      <point x="421" y="767" type="line"/>
      <point x="479" y="767" type="line"/>
    </contour>
    <contour>
      <point x="479" y="-106" type="line"/>
      <point x="421" y="-106" type="line"/>
      <point x="421" y="420" type="line"/>
      <point x="445" y="410" smooth="yes"/>
      <point x="479" y="380" smooth="yes"/>
      <point x="479" y="290" type="curve" smooth="yes"/>
    </contour>
  </outline>
</glyph>
<glyph name="guilsinglright" format="1">
  <advance width="353"/>
  <unicode hex="203A"/>
  <outline>
    <contour>
      <point x="353" y="299" type="line" name="hr00"/>
      <point x="80" y="549" type="line"/>
      <point x="80" y="302" type="line"/>
      <point x="192" y="198" type="line"/>
      <point x="80" y="95" type="line"/>
      <point x="80" y="8" type="line"/>
      <point x="353" y="257" type="line"/>
    </contour>
    <contour>
      <point x="118" y="321" type="line"/>
      <point x="118" y="383" type="line"/>
      <point x="256" y="256" type="line"/>
      <point x="222" y="225" type="line"/>
    </contour>
  </outline>
</glyph>
<glyph name="fourinferior" format="1">
  <advance width="557"/>
  <unicode hex="2084"/>
  <outline>
    <contour>
      <point x="526" y="97" type="line"/>
      <point x="526" y="126" type="line"/>
      <point x="424" y="126" type="line"/>
      <point x="424" y="273" type="line" smooth="yes"/>
      <point x="424" y="304" smooth="yes"/>
      <point x="449" y="329" smooth="yes"/>
      <point x="478" y="329" type="curve" smooth="yes"/>
      <point x="525" y="329" type="line"/>
      <point x="525" y="360" type="line"/>
      <point x="252" y="360" type="line"/>
      <point x="28" y="124" type="line"/>
      <point x="28" y="97" type="line"/>
      <point x="228" y="97" type="line"/>
      <point x="228" y="85" type="line" smooth="yes"/>
      <point x="228" y="44" smooth="yes"/>
      <point x="203" y="29" smooth="yes"/>
      <point x="173" y="29" type="curve" smooth="yes"/>
      <point x="127" y="29" type="line"/>
      <point x="127" y="0" type="line"/>
      <point x="525" y="0" type="line"/>
      <point x="525" y="29" type="line"/>
      <point x="478" y="29" type="line" smooth="yes"/>
      <point x="449" y="29" smooth="yes"/>
      <point x="424" y="44" smooth="yes"/>
      <point x="424" y="85" type="curve" smooth="yes"/>
      <point x="424" y="97" type="line"/>
    </contour>
    <contour>
      <point x="87" y="126" type="line"/>
      <point x="137" y="185"/>
      <point x="184" y="236"/>
      <point x="234" y="295" type="curve"/>
      <point x="234" y="295" smooth="yes"/>
      <point x="228" y="263" smooth="yes"/>
      <point x="228" y="234" type="curve" smooth="yes"/>
      <point x="228" y="126" type="line"/>
    </contour>
    <contour>
      <point x="268" y="329" type="line"/>
      <point x="308" y="329" type="line" name="hr01"/>
      <point x="308" y="29" type="line"/>
      <point x="268" y="29" type="line"/>
    </contour>
  </outline>
</glyph>
<glyph name="Omega" format="1">
  <advance width="1345"/>
  <unicode hex="2126"/>
  <outline>
    <contour>
      <point x="384" y="171" type="line" name="hr00"/>
      <point x="200" y="227" smooth="yes"/>
      <point x="76" y="333" smooth="yes"/>
      <point x="76" y="456" type="curve" smooth="yes"/>
      <point x="76" y="580"/>
      <point x="202" y="687"/>
      <point x="388" y="742" type="curve"/>
      <point x="389" y="738" type="line"/>
      <point x="246" y="682" smooth="yes"/>
      <point x="149" y="576" smooth="yes"/>
      <point x="149" y="456" type="curve" smooth="yes"/>
      <point x="149" y="336"/>
      <point x="244" y="231"/>
      <point x="385" y="175" type="curve"/>
    </contour>
    <contour>
      <point x="1035" y="456" type="curve" smooth="yes"/>
      <point x="1035" y="350"/>
      <point x="984" y="247"/>
      <point x="909" y="178" type="curve"/>
      <point x="903" y="180" type="line"/>
      <point x="937" y="264" smooth="yes"/>
      <point x="960" y="362" smooth="yes"/>
      <point x="960" y="456" type="curve" smooth="yes"/>
      <point x="960" y="550"/>
      <point x="937" y="648"/>
      <point x="903" y="732" type="curve"/>
      <point x="909" y="734" type="line"/>
      <point x="984" y="665" smooth="yes"/>
      <point x="1035" y="562" smooth="yes"/>
    </contour>
    <contour>
      <point x="22" y="456" type="curve"/>
      <point x="22" y="294"/>
      <point x="213" y="142"/>
      <point x="543" y="113" type="curve"/>
      <point x="543" y="64" smooth="yes"/>
      <point x="526" y="43" smooth="yes"/>
      <point x="475" y="43" type="curve" smooth="yes"/>
      <point x="428" y="43" type="line" smooth="yes"/>
      <point x="318" y="43"/>
      <point x="188" y="70"/>
      <point x="103" y="186" type="curve"/>
      <point x="74" y="186" type="line"/>
      <point x="74" y="0" type="line"/>
      <point x="605" y="0" type="line"/>
      <point x="605" y="163" type="line"/>
      <point x="495" y="188"/>
      <point x="465" y="363"/>
      <point x="465" y="455" type="curve"/>
      <point x="465" y="655" smooth="yes"/>
      <point x="509" y="760" smooth="yes"/>
      <point x="672" y="760" type="curve" smooth="yes"/>
      <point x="836" y="760" smooth="yes"/>
      <point x="879" y="655" smooth="yes"/>
      <point x="879" y="455" type="curve" smooth="yes"/>
      <point x="879" y="363"/>
      <point x="849" y="188"/>
      <point x="739" y="163" type="curve"/>
      <point x="739" y="0" type="line"/>
      <point x="1270" y="0" type="line"/>
      <point x="1270" y="186" type="line"/>
      <point x="1241" y="186" type="line"/>
      <point x="1156" y="70" smooth="yes"/>
      <point x="1026" y="43" smooth="yes"/>
      <point x="916" y="43" type="curve" smooth="yes"/>
      <point x="869" y="43" type="line" smooth="yes"/>
      <point x="818" y="43"/>
      <point x="801" y="64"/>
      <point x="801" y="113" type="curve"/>
      <point x="1131" y="142" smooth="yes"/>
      <point x="1322" y="294" smooth="yes"/>
      <point x="1322" y="456" type="curve" smooth="yes"/>
      <point x="1322" y="647" smooth="yes"/>
      <point x="1070" y="801" smooth="yes"/>
      <point x="672" y="801" type="curve" smooth="yes"/>
      <point x="274" y="801" smooth="yes"/>
      <point x="22" y="647" smooth="yes"/>
    </contour>
  </outline>
</glyph>
<glyph name="product" format="1">
  <advance width="1353"/>
  <unicode hex="220F"/>
  <outline>
    <contour>
      <point x="1153" y="-199" type="line" name="hr00"/>
      <point x="1153" y="758" type="line"/>
      <point x="1277" y="758" type="line"/>
      <point x="1277" y="801" type="line"/>
      <point x="73" y="801" type="line"/>
      <point x="73" y="758" type="line"/>
      <point x="179" y="758" type="line" smooth="yes"/>
      <point x="228" y="758" smooth="yes"/>
      <point x="269" y="716" smooth="yes"/>
      <point x="269" y="668" type="curve" smooth="yes"/>
      <point x="269" y="-199" type="line"/>
      <point x="606" y="-199" type="line"/>
      <point x="606" y="668" type="line" smooth="yes"/>
      <point x="606" y="716" smooth="yes"/>
      <point x="647" y="758" smooth="yes"/>
      <point x="696" y="758" type="curve" smooth="yes"/>
      <point x="816" y="758" type="line"/>
      <point x="816" y="-199" type="line"/>
    </contour>
    <contour>
      <point x="382" y="-156" type="line"/>
      <point x="331" y="-156" type="line"/>
      <point x="331" y="758" type="line"/>
      <point x="382" y="758" type="line"/>
    </contour>
    <contour>
      <point x="878" y="-156" type="line"/>
      <point x="878" y="758" type="line"/>
      <point x="929" y="758" type="line"/>
      <point x="929" y="-156" type="line"/>
    </contour>
  </outline>
</glyph>
<glyph name="infinity" format="1">
  <advance width="862"/>
  <unicode hex="221E"/>
  <outline>
    <contour>
      <point x="630" y="131" type="curve" smooth="yes" name="hr00"/>
      <point x="733" y="131" smooth="yes"/>
      <point x="812" y="211" smooth="yes"/>
      <point x="812" y="332" type="curve" smooth="yes"/>
      <point x="812" y="465" smooth="yes"/>
      <point x="731" y="539" smooth="yes"/>
      <point x="635" y="539" type="curve" smooth="yes"/>
      <point x="544" y="539"/>
      <point x="482" y="498"/>
      <point x="430" y="401" type="curve"/>
      <point x="378" y="483" smooth="yes"/>
      <point x="320" y="539" smooth="yes"/>
      <point x="231" y="539" type="curve" smooth="yes"/>
      <point x="129" y="539" smooth="yes"/>
      <point x="50" y="459" smooth="yes"/>
      <point x="50" y="338" type="curve" smooth="yes"/>
      <point x="50" y="205" smooth="yes"/>
      <point x="131" y="131" smooth="yes"/>
      <point x="227" y="131" type="curve" smooth="yes"/>
      <point x="318" y="131"/>
      <point x="380" y="172"/>
      <point x="432" y="270" type="curve"/>
      <point x="484" y="187" smooth="yes"/>
      <point x="542" y="131" smooth="yes"/>
    </contour>
    <contour>
      <point x="239" y="207" type="curve" smooth="yes"/>
      <point x="172" y="207" smooth="yes"/>
      <point x="127" y="261" smooth="yes"/>
      <point x="127" y="337" type="curve" smooth="yes"/>
      <point x="127" y="415" smooth="yes"/>
      <point x="172" y="463" smooth="yes"/>
      <point x="239" y="463" type="curve" smooth="yes"/>
      <point x="301" y="463"/>
      <point x="349" y="408"/>
      <point x="390" y="343" type="curve"/>
      <point x="356" y="259" smooth="yes"/>
      <point x="295" y="207" smooth="yes"/>
    </contour>
    <contour>
      <point x="623" y="463" type="curve" smooth="yes"/>
      <point x="690" y="463" smooth="yes"/>
      <point x="735" y="409" smooth="yes"/>
      <point x="735" y="333" type="curve" smooth="yes"/>
      <point x="735" y="255" smooth="yes"/>
      <point x="690" y="207" smooth="yes"/>
      <point x="623" y="207" type="curve" smooth="yes"/>
      <point x="562" y="207"/>
      <point x="514" y="262"/>
      <point x="472" y="328" type="curve"/>
      <point x="506" y="411" smooth="yes"/>
      <point x="567" y="463" smooth="yes"/>
    </contour>
  </outline>
</glyph>
<glyph name="approxequal" format="1">
  <advance width="740"/>
  <unicode hex="2248"/>
  <outline>
    <contour>
      <point x="640" y="268" type="line"/>
      <point x="602" y="287" smooth="yes"/>
      <point x="564" y="294" smooth="yes"/>
      <point x="526" y="294" type="curve" smooth="yes"/>
      <point x="422" y="294" smooth="yes"/>
      <point x="318" y="242" smooth="yes"/>
      <point x="214" y="242" type="curve" smooth="yes" name="hr01"/>
      <point x="176" y="242"/>
      <point x="138" y="249"/>
      <point x="100" y="268" type="curve"/>
      <point x="100" y="188" type="line"/>
      <point x="138" y="168" smooth="yes"/>
      <point x="176" y="161" smooth="yes"/>
      <point x="214" y="161" type="curve" smooth="yes"/>
      <point x="318" y="161" smooth="yes"/>
      <point x="422" y="214" smooth="yes"/>
      <point x="526" y="214" type="curve" smooth="yes" name="hr02"/>
      <point x="564" y="214"/>
      <point x="602" y="207"/>
      <point x="640" y="188" type="curve"/>
    </contour>
    <contour>
      <point x="640" y="488" type="line"/>
      <point x="602" y="505" smooth="yes"/>
      <point x="564" y="512" smooth="yes"/>
      <point x="527" y="512" type="curve" smooth="yes"/>
      <point x="423" y="512" smooth="yes"/>
      <point x="319" y="463" smooth="yes"/>
      <point x="215" y="463" type="curve" smooth="yes" name="hr03"/>
      <point x="177" y="463"/>
      <point x="138" y="469"/>
      <point x="100" y="488" type="curve"/>
      <point x="100" y="408" type="line"/>
      <point x="138" y="389" smooth="yes"/>
      <point x="176" y="382" smooth="yes"/>
      <point x="215" y="382" type="curve" smooth="yes"/>
      <point x="318" y="382" smooth="yes"/>
      <point x="422" y="432" smooth="yes"/>
      <point x="526" y="432" type="curve" smooth="yes" name="hr04"/>
      <point x="564" y="432"/>
      <point x="602" y="426"/>
      <point x="640" y="408" type="curve"/>
    </contour>
  </outline>
</glyph>
<glyph name="acute.case" format="1">
  <advance width="650"/>
  <outline>
    <contour>
      <point x="452" y="734" type="curve" name="hr00"/>
      <point x="576" y="763"/>
      <point x="600" y="862"/>
      <point x="600" y="862" type="curve"/>
      <point x="309" y="862" type="line"/>
      <point x="259" y="792"/>
      <point x="206" y="752"/>
      <point x="50" y="752" type="curve"/>
      <point x="50" y="716" type="line"/>
      <point x="104" y="716" type="line" smooth="yes"/>
      <point x="191" y="716" smooth="yes"/>
      <point x="374" y="716" smooth="yes"/>
    </contour>
    <contour>
      <point x="248" y="759" type="line"/>
      <point x="278" y="769"/>
      <point x="331" y="797"/>
      <point x="349" y="834" type="curve"/>
      <point x="413" y="834" type="line"/>
      <point x="396" y="809"/>
      <point x="352" y="760"/>
      <point x="248" y="755" type="curve"/>
    </contour>
  </outline>
</glyph>
<glyph name="dotaccent.case" format="1">
  <advance width="374"/>
  <outline>
    <contour>
      <point x="324" y="798" type="curve" name="hr00"/>
      <point x="324" y="861" smooth="yes"/>
      <point x="263" y="913" smooth="yes"/>
      <point x="186" y="913" type="curve" smooth="yes"/>
      <point x="111" y="913" smooth="yes"/>
      <point x="50" y="861" smooth="yes"/>
      <point x="50" y="798" type="curve" smooth="yes"/>
      <point x="50" y="735" smooth="yes"/>
      <point x="111" y="685" smooth="yes"/>
      <point x="186" y="685" type="curve" smooth="yes"/>
      <point x="263" y="685" smooth="yes"/>
      <point x="324" y="735" smooth="yes"/>
    </contour>
    <contour>
      <point x="112" y="798" type="curve"/>
      <point x="112" y="767"/>
      <point x="123" y="739"/>
      <point x="139" y="720" type="curve"/>
      <point x="137" y="717" type="line"/>
      <point x="102" y="733" smooth="yes"/>
      <point x="77" y="765" smooth="yes"/>
      <point x="77" y="798" type="curve" smooth="yes"/>
      <point x="77" y="831"/>
      <point x="102" y="863"/>
      <point x="137" y="879" type="curve"/>
      <point x="139" y="876" type="line"/>
      <point x="123" y="857" smooth="yes"/>
      <point x="112" y="829" smooth="yes"/>
    </contour>
  </outline>
</glyph>
<glyph name="g.alt" format="1">
  <advance width="1060"/>
  <outline>
    <contour>
      <point x="809" y="-287" type="curve"/>
      <point x="902" y="-256" smooth="yes"/>
      <point x="967" y="-187" smooth="yes"/>
      <point x="967" y="-114" type="curve" smooth="yes"/>
      <point x="967" y="195" smooth="yes"/>
      <point x="336" y="1" smooth="yes"/>
      <point x="336" y="126" type="curve" smooth="yes"/>
      <point x="336" y="144"/>
      <point x="353" y="157"/>
      <point x="379" y="166" type="curve"/>
      <point x="299" y="194" type="line"/>
      <point x="179" y="164" smooth="yes"/>
      <point x="65" y="111" smooth="yes"/>
      <point x="65" y="-4" type="curve" smooth="yes"/>
      <point x="65" y="-283"/>
      <point x="733" y="-116"/>
    </contour>
    <contour>
      <point x="135" y="39" type="line"/>
      <point x="161" y="-63" smooth="yes"/>
      <point x="314" y="-94" smooth="yes"/>
      <point x="475" y="-101" type="curve" smooth="yes"/>
      <point x="650" y="-109"/>
      <point x="809" y="-113"/>
      <point x="826" y="-218" type="curve"/>
      <point x="818" y="-220" type="line"/>
      <point x="764" y="-174" smooth="yes"/>
      <point x="700" y="-161" smooth="yes"/>
      <point x="473" y="-150" type="curve" smooth="yes"/>
      <point x="271" y="-140" smooth="yes"/>
      <point x="121" y="-103" smooth="yes"/>
      <point x="121" y="-2" type="curve" smooth="yes" name="hr01"/>
      <point x="121" y="11"/>
      <point x="123" y="24"/>
      <point x="128" y="38" type="curve"/>
    </contour>
    <contour>
      <point x="966" y="362" type="curve" smooth="yes"/>
      <point x="966" y="483" smooth="yes"/>
      <point x="793" y="580" smooth="yes"/>
      <point x="520" y="580" type="curve" smooth="yes"/>
      <point x="246" y="580" smooth="yes"/>
      <point x="73" y="483" smooth="yes"/>
      <point x="73" y="362" type="curve" smooth="yes"/>
      <point x="73" y="241" smooth="yes"/>
      <point x="274" y="143" smooth="yes"/>
      <point x="520" y="143" type="curve" smooth="yes"/>
      <point x="767" y="143" smooth="yes"/>
      <point x="966" y="241" smooth="yes"/>
    </contour>
    <contour>
      <point x="520" y="536" type="curve" smooth="yes"/>
      <point x="600" y="536" smooth="yes"/>
      <point x="659" y="477" smooth="yes"/>
      <point x="659" y="361" type="curve" smooth="yes"/>
      <point x="659" y="245" smooth="yes"/>
      <point x="584" y="186" smooth="yes"/>
      <point x="520" y="186" type="curve" smooth="yes"/>
      <point x="456" y="186" smooth="yes"/>
      <point x="381" y="245" smooth="yes"/>
      <point x="381" y="361" type="curve" smooth="yes"/>
      <point x="381" y="477" smooth="yes"/>
      <point x="441" y="536" smooth="yes"/>
    </contour>
    <contour>
      <point x="349" y="194" type="line"/>
      <point x="221" y="229" smooth="yes"/>
      <point x="136" y="288" smooth="yes"/>
      <point x="136" y="362" type="curve" smooth="yes" name="hr02"/>
      <point x="136" y="435"/>
      <point x="220" y="493"/>
      <point x="348" y="528" type="curve"/>
      <point x="351" y="519" type="line"/>
      <point x="261" y="484" smooth="yes"/>
      <point x="204" y="430" smooth="yes"/>
      <point x="204" y="362" type="curve" smooth="yes"/>
      <point x="204" y="294"/>
      <point x="262" y="238"/>
      <point x="353" y="203" type="curve"/>
    </contour>
    <contour>
      <point x="679" y="519" type="line"/>
      <point x="748" y="481" smooth="yes"/>
      <point x="790" y="412" smooth="yes"/>
      <point x="790" y="361" type="curve" smooth="yes"/>
      <point x="790" y="308"/>
      <point x="747" y="239"/>
      <point x="678" y="201" type="curve"/>
      <point x="671" y="203" type="line"/>
      <point x="701" y="252" smooth="yes"/>
      <point x="722" y="314" smooth="yes"/>
      <point x="722" y="361" type="curve" smooth="yes"/>
      <point x="722" y="407"/>
      <point x="701" y="470"/>
      <point x="672" y="517" type="curve"/>
    </contour>
    <contour>
      <point x="520" y="536" type="line"/>
      <point x="967" y="536" type="line"/>
      <point x="967" y="579" type="line" name="hr03"/>
      <point x="520" y="579" type="line"/>
    </contour>
  </outline>
</glyph>
<glyph name="grave.case" format="1">
  <advance width="650"/>
  <outline>
    <contour>
      <point x="198" y="734" type="curve" smooth="yes" name="hr00"/>
      <point x="276" y="716" smooth="yes"/>
      <point x="459" y="716" smooth="yes"/>
      <point x="546" y="716" type="curve" smooth="yes"/>
      <point x="600" y="716" type="line"/>
      <point x="600" y="752" type="line"/>
      <point x="444" y="752"/>
      <point x="391" y="792"/>
      <point x="341" y="862" type="curve"/>
      <point x="50" y="862" type="line"/>
      <point x="50" y="862" smooth="yes"/>
      <point x="74" y="763" smooth="yes"/>
    </contour>
    <contour>
      <point x="288" y="755" type="line"/>
      <point x="184" y="760"/>
      <point x="140" y="809"/>
      <point x="123" y="834" type="curve"/>
      <point x="187" y="834" type="line"/>
      <point x="205" y="797"/>
      <point x="258" y="769"/>
      <point x="288" y="759" type="curve"/>
    </contour>
  </outline>
</glyph>
<glyph name="macron.case" format="1">
  <advance width="505"/>
  <outline>
    <contour>
      <point x="50" y="722" type="line" name="hr00"/>
      <point x="455" y="722" type="line"/>
      <point x="455" y="856" type="line"/>
      <point x="50" y="856" type="line"/>
    </contour>
    <contour>
      <point x="165" y="742" type="line"/>
      <point x="111" y="742" type="line"/>
      <point x="111" y="836" type="line"/>
      <point x="165" y="836" type="line"/>
    </contour>
  </outline>
</glyph>
<glyph name="ring.case" format="1">
  <advance width="374"/>
  <outline>
    <contour>
      <point x="138" y="798" type="curve" smooth="yes" name="hr00"/>
      <point x="138" y="853" smooth="yes"/>
      <point x="160" y="897" smooth="yes"/>
      <point x="186" y="897" type="curve" smooth="yes"/>
      <point x="212" y="897" smooth="yes"/>
      <point x="234" y="853" smooth="yes"/>
      <point x="234" y="798" type="curve" smooth="yes"/>
      <point x="234" y="743" smooth="yes"/>
      <point x="212" y="699" smooth="yes"/>
      <point x="186" y="699" type="curve" smooth="yes"/>
      <point x="160" y="699" smooth="yes"/>
      <point x="138" y="743" smooth="yes"/>
    </contour>
    <contour>
      <point x="345" y="798" type="curve" smooth="yes"/>
      <point x="345" y="870" smooth="yes"/>
      <point x="274" y="930" smooth="yes"/>
      <point x="186" y="930" type="curve" smooth="yes"/>
      <point x="100" y="930" smooth="yes"/>
      <point x="29" y="870" smooth="yes"/>
      <point x="29" y="798" type="curve" smooth="yes"/>
      <point x="29" y="725" smooth="yes"/>
      <point x="100" y="668" smooth="yes"/>
      <point x="186" y="668" type="curve" smooth="yes"/>
      <point x="274" y="668" smooth="yes"/>
      <point x="345" y="725" smooth="yes"/>
    </contour>
    <contour>
      <point x="101" y="798" type="curve"/>
      <point x="101" y="762"/>
      <point x="113" y="730"/>
      <point x="132" y="708" type="curve"/>
      <point x="129" y="705" type="line"/>
      <point x="89" y="723" smooth="yes"/>
      <point x="61" y="760" smooth="yes"/>
      <point x="61" y="798" type="curve" smooth="yes"/>
      <point x="61" y="836"/>
      <point x="89" y="873"/>
      <point x="129" y="891" type="curve"/>
      <point x="132" y="888" type="line"/>
      <point x="113" y="866"/>
      <point x="101" y="833"/>
    </contour>
  </outline>
</glyph>
<glyph name="ringacute" format="1">
  <advance width="374"/>
  <outline>
    <contour>
      <point x="138" y="696" type="curve" smooth="yes" name="hr00"/>
      <point x="138" y="745" smooth="yes"/>
      <point x="160" y="785" smooth="yes"/>
      <point x="186" y="785" type="curve" smooth="yes"/>
      <point x="212" y="785" smooth="yes"/>
      <point x="234" y="745" smooth="yes"/>
      <point x="234" y="696" type="curve" smooth="yes"/>
      <point x="234" y="647" smooth="yes"/>
      <point x="212" y="607" smooth="yes"/>
      <point x="186" y="607" type="curve" smooth="yes"/>
      <point x="160" y="607" smooth="yes"/>
      <point x="138" y="647" smooth="yes"/>
    </contour>
    <contour>
      <point x="101" y="696" type="curve" smooth="yes"/>
      <point x="101" y="664"/>
      <point x="113" y="636"/>
      <point x="132" y="616" type="curve"/>
      <point x="129" y="613" type="line"/>
      <point x="89" y="629" smooth="yes"/>
      <point x="61" y="662" smooth="yes"/>
      <point x="61" y="696" type="curve" smooth="yes"/>
      <point x="61" y="731"/>
      <point x="89" y="765"/>
      <point x="129" y="782" type="curve"/>
      <point x="132" y="779" type="line"/>
      <point x="113" y="758" smooth="yes"/>
      <point x="101" y="728" smooth="yes"/>
    </contour>
    <contour>
      <point x="177" y="808" type="line"/>
      <point x="207" y="818"/>
      <point x="260" y="846"/>
      <point x="278" y="883" type="curve"/>
      <point x="342" y="883" type="line"/>
      <point x="325" y="858"/>
      <point x="282" y="809"/>
      <point x="180" y="804" type="curve"/>
    </contour>
    <contour>
      <point x="445" y="911" type="curve"/>
      <point x="248" y="911" type="line"/>
      <point x="204" y="796" smooth="yes"/>
      <point x="29" y="823" smooth="yes"/>
      <point x="29" y="696" type="curve" smooth="yes"/>
      <point x="29" y="629" smooth="yes"/>
      <point x="100" y="576" smooth="yes"/>
      <point x="186" y="576" type="curve" smooth="yes"/>
      <point x="274" y="576" smooth="yes"/>
      <point x="345" y="629" smooth="yes"/>
      <point x="345" y="696" type="curve" smooth="yes"/>
      <point x="345" y="736"/>
      <point x="319" y="771"/>
      <point x="280" y="794" type="curve"/>
      <point x="397" y="808"/>
      <point x="439" y="883"/>
    </contour>
  </outline>
</glyph>
<glyph name="tilde.case" format="1">
  <advance width="738"/>
  <outline>
    <contour>
      <point x="617" y="785" type="line"/>
      <point x="584" y="757" smooth="yes"/>
      <point x="530" y="739" smooth="yes"/>
      <point x="484" y="739" type="curve" smooth="yes"/>
      <point x="344" y="739" smooth="yes"/>
      <point x="251" y="789" smooth="yes"/>
      <point x="167" y="789" type="curve" smooth="yes"/>
      <point x="153" y="789"/>
      <point x="139" y="787"/>
      <point x="125" y="784" type="curve"/>
      <point x="122" y="788" type="line"/>
      <point x="140" y="804" smooth="yes"/>
      <point x="165" y="818" smooth="yes"/>
      <point x="202" y="818" type="curve" smooth="yes"/>
      <point x="312" y="818" smooth="yes"/>
      <point x="356" y="774" smooth="yes"/>
      <point x="512" y="774" type="curve" smooth="yes" name="hr01"/>
      <point x="541" y="774"/>
      <point x="587" y="780"/>
      <point x="615" y="789" type="curve" name="hr02"/>
    </contour>
    <contour>
      <point x="655" y="878" type="line"/>
      <point x="642" y="856" smooth="yes"/>
      <point x="621" y="843" smooth="yes"/>
      <point x="577" y="843" type="curve" smooth="yes" name="hr03"/>
      <point x="471" y="843" smooth="yes"/>
      <point x="426" y="879" smooth="yes"/>
      <point x="276" y="879" type="curve" smooth="yes" name="hr04"/>
      <point x="128" y="879"/>
      <point x="54" y="767"/>
      <point x="50" y="717" type="curve"/>
      <point x="78" y="717" type="line"/>
      <point x="87" y="739" smooth="yes"/>
      <point x="111" y="754" smooth="yes"/>
      <point x="140" y="754" type="curve" smooth="yes" name="hr05"/>
      <point x="270" y="754" smooth="yes"/>
      <point x="320" y="705" smooth="yes"/>
      <point x="477" y="705" type="curve" smooth="yes" name="hr06"/>
      <point x="616" y="705"/>
      <point x="683" y="825"/>
      <point x="688" y="878" type="curve"/>
    </contour>
  </outline>
</glyph>
